<svg width="98" height="41" viewBox="0 0 98 41" fill="none" xmlns="http://www.w3.org/2000/svg">
<rect width="98" height="41" rx="20" fill="#2E933C"/>
<path d="M21.184 30V12.24H27.04C30.688 12.24 33.472 13.32 33.472 16.632C33.472 18.264 32.584 19.92 31.072 20.472V20.568C32.968 21.024 34.384 22.392 34.384 24.768C34.384 28.344 31.408 30 27.52 30H21.184ZM24.736 19.464H26.8C29.056 19.464 30.016 18.576 30.016 17.136C30.016 15.576 28.984 14.976 26.848 14.976H24.736V19.464ZM24.736 27.264H27.208C29.608 27.264 30.928 26.4 30.928 24.576C30.928 22.848 29.656 22.104 27.208 22.104H24.736V27.264ZM37.5199 30V12.24H48.4159V15.192H41.0719V19.296H47.2879V22.296H41.0719V27.024H48.6799V30H37.5199ZM55.8136 30V15.192H50.7976V12.24H64.3816V15.192H59.3656V30H55.8136ZM63.7868 30L69.4748 12.24H73.6508L79.3388 30H75.6188L73.0748 20.76C72.5468 18.912 72.0428 16.848 71.5388 14.952H71.4428C70.9628 16.872 70.4588 18.912 69.9308 20.76L67.3868 30H63.7868ZM67.3148 25.44V22.704H75.7628V25.44H67.3148Z" fill="white"/>
</svg>
