<svg width="16" height="14" viewBox="0 0 16 14" fill="none" xmlns="http://www.w3.org/2000/svg">
<path d="M15 5.99997H3.14L6.77 1.63997C6.93974 1.43575 7.0214 1.17247 6.99702 0.908047C6.97264 0.64362 6.84422 0.399709 6.64 0.22997C6.43578 0.0602319 6.1725 -0.02143 5.90808 0.00294976C5.64365 0.0273295 5.39974 0.155754 5.23 0.359971L0.23 6.35997C0.196361 6.40769 0.166279 6.45783 0.14 6.50997C0.14 6.55997 0.14 6.58997 0.0700002 6.63997C0.0246737 6.75463 0.000941121 6.87668 0 6.99997C0.000941121 7.12326 0.0246737 7.24531 0.0700002 7.35997C0.0700002 7.40997 0.0699999 7.43997 0.14 7.48997C0.166279 7.54211 0.196361 7.59225 0.23 7.63997L5.23 13.64C5.32402 13.7529 5.44176 13.8436 5.57485 13.9059C5.70793 13.9681 5.85309 14.0002 6 14C6.23365 14.0004 6.46009 13.9191 6.64 13.77C6.74126 13.686 6.82496 13.5829 6.88631 13.4666C6.94766 13.3502 6.98546 13.2229 6.99754 13.0919C7.00961 12.961 6.99573 12.8289 6.95669 12.7033C6.91764 12.5777 6.8542 12.461 6.77 12.36L3.14 7.99997H15C15.2652 7.99997 15.5196 7.89461 15.7071 7.70708C15.8946 7.51954 16 7.26519 16 6.99997C16 6.73475 15.8946 6.4804 15.7071 6.29286C15.5196 6.10533 15.2652 5.99997 15 5.99997Z" fill="white"/>
</svg>
