<svg width="16" height="14" viewBox="0 0 16 14" fill="none" xmlns="http://www.w3.org/2000/svg">
<path d="M1 6.00125H12.86L9.23 1.64125C9.06026 1.43704 8.9786 1.17375 9.00298 0.909329C9.02736 0.644902 9.15578 0.400991 9.36 0.231252C9.56422 0.0615137 9.8275 -0.0201482 10.0919 0.0042315C10.3564 0.0286112 10.6003 0.157036 10.77 0.361252L15.77 6.36125C15.8036 6.40898 15.8337 6.45911 15.86 6.51125C15.86 6.56125 15.86 6.59125 15.93 6.64125C15.9753 6.75591 15.9991 6.87796 16 7.00125C15.9991 7.12454 15.9753 7.24659 15.93 7.36125C15.93 7.41125 15.93 7.44125 15.86 7.49125C15.8337 7.54339 15.8036 7.59353 15.77 7.64125L10.77 13.6413C10.676 13.7541 10.5582 13.8449 10.4252 13.9071C10.2921 13.9694 10.1469 14.0015 10 14.0013C9.76635 14.0017 9.53991 13.9203 9.36 13.7713C9.25874 13.6873 9.17504 13.5842 9.11369 13.4679C9.05234 13.3515 9.01454 13.2242 9.00246 13.0932C8.99039 12.9622 9.00427 12.8302 9.04331 12.7046C9.08236 12.579 9.1458 12.4623 9.23 12.3613L12.86 8.00125H1C0.734784 8.00125 0.480429 7.8959 0.292892 7.70836C0.105356 7.52082 0 7.26647 0 7.00125C0 6.73604 0.105356 6.48168 0.292892 6.29415C0.480429 6.10661 0.734784 6.00125 1 6.00125Z" fill="white"/>
</svg>
