<svg width="273" height="15" viewBox="0 0 273 15" fill="none" xmlns="http://www.w3.org/2000/svg">
<path d="M1.255 2.11C2.365 2.23 3.76 2.29 5.35 2.29C6.82 2.29 8.545 2.2 9.685 2.08V4.075C8.635 4.165 6.79 4.255 5.35 4.255C3.79 4.255 2.485 4.18 1.255 4.09V2.11ZM2.515 8.455C2.38 8.995 2.26 9.475 2.26 9.985C2.26 10.93 3.19 11.635 5.35 11.635C7.36 11.635 9.28 11.41 10.615 11.035L10.63 13.15C9.31 13.45 7.51 13.645 5.41 13.645C1.99 13.645 0.25 12.505 0.25 10.435C0.25 9.58 0.445 8.845 0.55 8.275L2.515 8.455ZM21.865 2.725C21.655 4.255 21.355 6.01 20.83 7.78C19.93 10.81 18.64 12.67 17.005 12.67C15.325 12.67 13.945 10.825 13.945 8.29C13.945 4.84 16.96 1.87 20.845 1.87C24.55 1.87 26.905 4.45 26.905 7.735C26.905 10.885 24.97 13.12 21.19 13.705L20.05 11.935C20.635 11.86 21.055 11.785 21.46 11.695C23.365 11.23 24.865 9.865 24.865 7.66C24.865 5.305 23.395 3.625 20.8 3.625C17.62 3.625 15.88 6.22 15.88 8.11C15.88 9.625 16.48 10.36 17.05 10.36C17.695 10.36 18.265 9.4 18.895 7.375C19.33 5.965 19.66 4.24 19.81 2.665L21.865 2.725ZM38.365 3.61L40.285 4.165C38.395 9.565 34.9 12.715 29.53 14.395C29.32 13.945 28.75 13.075 28.39 12.64C33.58 11.275 36.805 8.5 38.365 3.61ZM32.575 3.73C34.09 8.17 37.33 11.365 42.67 12.565C42.235 12.985 41.65 13.84 41.365 14.365C35.74 12.895 32.65 9.46 30.775 4.27L32.575 3.73ZM28.66 2.635H42.4V4.405H28.66V2.635ZM34.555 0.264999H36.415V3.715H34.555V0.264999ZM44.035 2.725C44.62 2.71 45.22 2.68 45.505 2.65C46.75 2.53 49.225 2.32 51.97 2.08C53.53 1.96 55.165 1.855 56.23 1.81L56.245 3.745C55.435 3.745 54.145 3.76 53.335 3.94C51.535 4.42 50.17 6.37 50.17 8.155C50.17 10.615 52.48 11.515 55.015 11.635L54.31 13.69C51.175 13.495 48.205 11.8 48.205 8.545C48.205 6.4 49.42 4.69 50.425 3.925C49.03 4.075 45.955 4.405 44.23 4.78L44.035 2.725ZM54.1 5.215C54.46 5.74 55 6.655 55.285 7.255L54.16 7.75C53.77 6.94 53.455 6.34 52.99 5.68L54.1 5.215ZM55.765 4.525C56.155 5.05 56.725 5.935 57.04 6.52L55.915 7.06C55.51 6.25 55.165 5.68 54.685 5.02L55.765 4.525ZM63.85 3.79C64.72 3.88 65.575 3.925 66.49 3.925C68.32 3.925 70.195 3.775 71.755 3.445V5.305C70.18 5.545 68.29 5.665 66.49 5.68C65.605 5.68 64.75 5.65 63.865 5.59L63.85 3.79ZM69.565 1.27C69.52 1.555 69.49 1.915 69.475 2.23C69.445 2.725 69.415 3.76 69.415 4.84C69.415 7.6 69.655 9.55 69.655 10.975C69.655 12.55 68.875 13.69 66.715 13.69C64.63 13.69 63.34 12.835 63.34 11.26C63.34 9.73 64.63 8.68 66.685 8.68C69.505 8.68 71.32 10.09 72.49 11.17L71.47 12.745C69.745 11.14 68.23 10.135 66.535 10.135C65.68 10.135 65.095 10.48 65.095 11.05C65.095 11.665 65.695 11.935 66.505 11.935C67.42 11.935 67.735 11.455 67.735 10.57C67.735 9.535 67.54 7.015 67.54 4.855C67.54 3.715 67.525 2.71 67.51 2.26C67.51 2.02 67.465 1.555 67.42 1.27H69.565ZM62.245 1.42C62.125 1.72 61.945 2.5 61.885 2.77C61.66 3.775 61.165 7.075 61.165 8.575C61.165 8.86 61.18 9.25 61.225 9.55C61.435 9.025 61.69 8.515 61.9 8.005L62.83 8.74C62.41 9.985 61.915 11.5 61.75 12.325C61.705 12.535 61.66 12.865 61.675 13.015C61.675 13.18 61.675 13.435 61.69 13.645L59.995 13.765C59.695 12.73 59.395 11.005 59.395 8.98C59.395 6.715 59.845 3.88 60.025 2.725C60.085 2.305 60.145 1.72 60.16 1.255L62.245 1.42ZM78.25 2.845L79.9 2.05C80.875 3.145 81.835 4.615 82.27 5.665L80.515 6.61C80.125 5.56 79.165 3.985 78.25 2.845ZM73.375 10.735C74.92 10.21 77.305 9.25 79.495 8.335L79.915 10.105C77.92 11.005 75.7 11.935 74.005 12.655L73.375 10.735ZM82.165 9.385L83.56 8.125C84.925 9.55 86.845 11.545 87.7 12.85L86.17 14.335C85.375 13 83.545 10.915 82.165 9.385ZM84.205 1.12L86.2 1.3C85.495 8.095 83.68 12.16 78.76 14.38C78.505 13.975 77.755 13.165 77.32 12.775C82.105 10.975 83.65 7.315 84.205 1.12ZM75.085 1.18L76.975 1.105L77.305 10.855L75.43 10.93L75.085 1.18ZM88.765 1.36H102.235V3.175H88.765V1.36ZM94.21 2.995H96.145V14.32H94.21V2.995ZM95.23 6.625L96.46 5.2C98.095 6.01 100.45 7.315 101.605 8.245L100.27 9.895C99.205 8.95 96.925 7.54 95.23 6.625ZM111.865 2.725C111.655 4.255 111.355 6.01 110.83 7.78C109.93 10.81 108.64 12.67 107.005 12.67C105.325 12.67 103.945 10.825 103.945 8.29C103.945 4.84 106.96 1.87 110.845 1.87C114.55 1.87 116.905 4.45 116.905 7.735C116.905 10.885 114.97 13.12 111.19 13.705L110.05 11.935C110.635 11.86 111.055 11.785 111.46 11.695C113.365 11.23 114.865 9.865 114.865 7.66C114.865 5.305 113.395 3.625 110.8 3.625C107.62 3.625 105.88 6.22 105.88 8.11C105.88 9.625 106.48 10.36 107.05 10.36C107.695 10.36 108.265 9.4 108.895 7.375C109.33 5.965 109.66 4.24 109.81 2.665L111.865 2.725ZM124.495 0.279999H126.28V4.36C126.28 4.915 126.43 4.99 127.315 4.99C127.72 4.99 129.43 4.99 129.925 4.99C130.675 4.99 130.795 4.75 130.9 3.265C131.275 3.535 132.04 3.805 132.52 3.91C132.295 6.04 131.77 6.595 130.06 6.595C129.61 6.595 127.57 6.595 127.135 6.595C125.035 6.595 124.495 6.085 124.495 4.36V0.279999ZM130.3 0.909999L131.635 2.215C129.97 2.905 127.735 3.445 125.815 3.805C125.725 3.415 125.47 2.815 125.275 2.47C127.075 2.095 129.085 1.495 130.3 0.909999ZM124.465 7.465H131.785V14.275H130V8.95H126.16V14.35H124.465V7.465ZM125.365 9.88H130.615V11.275H125.365V9.88ZM125.29 12.265H130.615V13.69H125.29V12.265ZM118.315 7.915C119.71 7.615 121.795 7.105 123.745 6.595L123.955 8.245C122.17 8.755 120.25 9.25 118.75 9.64L118.315 7.915ZM118.54 3.085H123.715V4.765H118.54V3.085ZM120.415 0.264999H122.185V12.415C122.185 13.285 122.035 13.735 121.525 14.005C121.015 14.275 120.295 14.335 119.23 14.32C119.185 13.87 118.945 13.135 118.735 12.685C119.32 12.7 119.935 12.7 120.13 12.7C120.34 12.685 120.415 12.625 120.415 12.415V0.264999ZM138.205 1.57H147.28V3.085H138.205V1.57ZM141.82 0.264999H143.575V2.665H141.82V0.264999ZM142.015 5.8H143.395V9.685H142.015V5.8ZM138.325 4.45H146.41V5.905H139.945V14.335H138.325V4.45ZM145.465 4.45H147.16V12.535C147.16 13.315 147.025 13.765 146.545 14.05C146.065 14.305 145.42 14.32 144.52 14.32C144.46 13.87 144.265 13.165 144.055 12.73C144.55 12.745 145.075 12.745 145.24 12.745C145.42 12.745 145.465 12.685 145.465 12.52V4.45ZM140.62 9.25H141.895V13.225H140.62V9.25ZM141.475 9.25H144.835V12.595H141.475V11.395H143.485V10.435H141.475V9.25ZM140.305 6.91H145.075V8.185H140.305V6.91ZM144.13 2.8L145.885 3.055C145.615 3.715 145.375 4.315 145.165 4.75L143.635 4.495C143.815 4 144.04 3.295 144.13 2.8ZM139.735 3.145L141.265 2.815C141.505 3.295 141.715 4 141.775 4.45L140.17 4.84C140.125 4.39 139.945 3.685 139.735 3.145ZM133.3 7.81C134.5 7.54 136.285 7.06 137.98 6.58L138.22 8.2C136.675 8.68 135.025 9.16 133.705 9.535L133.3 7.81ZM133.54 3.115H138.13V4.765H133.54V3.115ZM135.13 0.279999H136.78V12.445C136.78 13.285 136.63 13.75 136.165 14.02C135.715 14.305 135.07 14.365 134.095 14.365C134.05 13.915 133.84 13.18 133.63 12.685C134.17 12.715 134.695 12.715 134.875 12.7C135.055 12.7 135.13 12.655 135.13 12.445V0.279999ZM154.81 1.27C154.72 1.66 154.63 2.14 154.555 2.515C154.405 3.19 154.225 4.12 154.06 4.885C153.565 7 152.365 11.275 150.79 13.81L148.825 13.03C150.61 10.63 151.735 6.67 152.155 4.78C152.44 3.43 152.605 2.155 152.59 1.03L154.81 1.27ZM159.985 2.77C160.9 4.075 162.16 6.865 162.625 8.29L160.72 9.175C160.33 7.51 159.265 4.87 158.185 3.535L159.985 2.77ZM148.735 4.345C149.275 4.375 149.785 4.36 150.34 4.345C151.54 4.315 154.39 3.985 155.5 3.985C157.09 3.985 158.215 4.69 158.215 6.865C158.215 8.635 157.99 11.065 157.36 12.355C156.865 13.405 156.025 13.735 154.9 13.735C154.315 13.735 153.61 13.645 153.1 13.525L152.77 11.545C153.355 11.71 154.21 11.86 154.6 11.86C155.11 11.86 155.5 11.71 155.725 11.215C156.145 10.375 156.34 8.545 156.34 7.075C156.34 5.875 155.83 5.695 154.885 5.695C154 5.695 151.405 6.025 150.58 6.13C150.145 6.19 149.365 6.295 148.915 6.37L148.735 4.345ZM159.715 0.699999C160.09 1.24 160.615 2.2 160.9 2.755L159.7 3.265C159.385 2.65 158.92 1.765 158.515 1.18L159.715 0.699999ZM161.485 0.00999916C161.875 0.579999 162.43 1.54 162.7 2.065L161.5 2.575C161.2 1.945 160.705 1.075 160.3 0.504999L161.485 0.00999916ZM170.44 0.94C170.35 1.225 170.29 1.495 170.23 1.735C169.945 3.13 169.69 5.29 169.69 7.15C169.69 9.52 170.125 11.2 170.62 12.715L168.895 13.225C168.445 11.875 168.01 9.655 168.01 7.45C168.01 5.485 168.28 3.28 168.445 1.795C168.475 1.495 168.505 1.15 168.49 0.88L170.44 0.94ZM167.755 2.59C170.605 2.59 172.87 2.455 175.165 1.9L175.18 3.625C173.125 4 169.975 4.225 167.71 4.225C166.915 4.225 165.745 4.15 165.04 4.12L164.995 2.395C165.535 2.47 166.84 2.59 167.755 2.59ZM174.235 4.795C174.115 5.065 173.89 5.755 173.785 6.07C172.93 8.77 171.385 10.795 169.96 11.845C168.985 12.565 167.68 13.225 166.375 13.225C165.28 13.225 164.365 12.565 164.365 11.035C164.365 8.92 166.255 6.715 168.64 5.845C169.63 5.485 170.86 5.26 171.985 5.26C174.79 5.26 176.86 6.88 176.86 9.22C176.86 11.35 175.6 13.405 171.925 13.975L170.92 12.385C173.815 12.07 175 10.615 175 9.13C175 7.855 173.905 6.775 171.88 6.775C170.515 6.775 169.435 7.165 168.7 7.495C167.2 8.2 166.135 9.64 166.135 10.645C166.135 11.14 166.33 11.395 166.825 11.395C167.53 11.395 168.535 10.9 169.45 10.045C170.545 9.04 171.565 7.705 172.165 5.635C172.27 5.32 172.375 4.675 172.39 4.345L174.235 4.795ZM181.3 1.585C181.72 1.63 182.23 1.66 182.65 1.66C183.46 1.66 186.655 1.585 187.51 1.51C188.14 1.465 188.485 1.405 188.665 1.345L189.625 2.695C189.28 2.92 188.92 3.13 188.59 3.385C187.78 3.955 186.205 5.275 185.245 6.025C185.755 5.89 186.205 5.86 186.67 5.86C189.22 5.86 191.155 7.45 191.155 9.625C191.155 11.995 189.355 13.87 185.725 13.87C183.64 13.87 182.065 12.925 182.065 11.41C182.065 10.195 183.175 9.085 184.765 9.085C186.82 9.085 187.96 10.465 188.005 12.115L186.25 12.34C186.22 11.26 185.65 10.51 184.765 10.51C184.21 10.51 183.835 10.855 183.835 11.245C183.835 11.8 184.45 12.175 185.365 12.175C187.9 12.175 189.19 11.215 189.19 9.61C189.19 8.245 187.84 7.33 186.085 7.33C183.775 7.33 182.29 8.56 180.685 10.375L179.32 8.965C180.385 8.125 182.2 6.595 183.07 5.86C183.91 5.17 185.485 3.91 186.22 3.25C185.455 3.28 183.385 3.355 182.575 3.415C182.17 3.445 181.705 3.475 181.36 3.535L181.3 1.585ZM201.535 0.984999C201.475 1.42 201.43 2.155 201.4 2.74C201.385 3.46 201.4 4.315 201.4 5.17C201.4 6.835 201.685 10.06 201.685 11.32C201.685 12.655 200.995 13.915 198.49 13.915C196.33 13.915 194.575 13.21 194.575 11.185C194.575 9.61 195.925 8.38 198.67 8.38C201.805 8.38 204.61 9.955 206.14 11.365L204.985 13.165C203.5 11.665 201.115 10.045 198.4 10.045C197.23 10.045 196.525 10.435 196.525 11.095C196.525 11.815 197.275 12.1 198.325 12.1C199.285 12.1 199.645 11.665 199.645 10.675C199.645 9.625 199.465 6.595 199.465 5.17C199.465 4.27 199.45 3.385 199.435 2.74C199.42 1.99 199.375 1.345 199.285 0.984999H201.535ZM200.395 3.85C201.28 3.85 203.905 3.79 205.585 3.61L205.66 5.395C203.965 5.545 201.325 5.62 200.395 5.62V3.85ZM218.26 8.095C218.26 7.105 217.495 6.31 216.085 6.31C214.435 6.31 212.935 6.805 212.185 7.03C211.75 7.165 211.15 7.39 210.73 7.57L210.16 5.41C210.67 5.38 211.3 5.26 211.795 5.155C212.89 4.915 214.57 4.48 216.34 4.48C218.71 4.48 220.375 5.83 220.375 8.17C220.375 11.395 217.39 13.375 213.22 13.96L212.155 12.085C215.875 11.665 218.26 10.45 218.26 8.095ZM212.365 0.894999C214.12 1.27 217.525 1.57 219.1 1.57L218.815 3.415C217.06 3.295 213.805 2.995 212.08 2.695L212.365 0.894999ZM224.035 2.725C224.62 2.71 225.22 2.68 225.505 2.65C226.75 2.53 229.225 2.32 231.97 2.08C233.53 1.96 235.165 1.855 236.23 1.81L236.245 3.745C235.435 3.745 234.145 3.76 233.335 3.94C231.535 4.42 230.17 6.37 230.17 8.155C230.17 10.615 232.48 11.515 235.015 11.635L234.31 13.69C231.175 13.495 228.205 11.8 228.205 8.545C228.205 6.4 229.42 4.69 230.425 3.925C229.03 4.075 225.955 4.405 224.23 4.78L224.035 2.725ZM234.1 5.215C234.46 5.74 235 6.655 235.285 7.255L234.16 7.75C233.77 6.94 233.455 6.34 232.99 5.68L234.1 5.215ZM235.765 4.525C236.155 5.05 236.725 5.935 237.04 6.52L235.915 7.06C235.51 6.25 235.165 5.68 234.685 5.02L235.765 4.525ZM247.795 0.909999C247.75 1.165 247.705 1.96 247.69 2.2C247.645 3.19 247.675 6.25 247.69 7.45L245.815 6.82C245.815 5.89 245.815 3.01 245.755 2.215C245.71 1.615 245.65 1.105 245.62 0.909999H247.795ZM239.305 2.785C241.54 2.785 245.5 2.665 247.375 2.665C248.905 2.665 251.185 2.65 252.025 2.665L251.995 4.435C251.065 4.39 249.535 4.345 247.33 4.345C244.6 4.345 241.615 4.465 239.35 4.585L239.305 2.785ZM247.435 7.225C247.435 9.67 246.535 10.885 244.81 10.885C243.655 10.885 242.215 9.97 242.215 8.14C242.215 6.445 243.595 5.335 245.215 5.335C247.195 5.335 248.23 6.79 248.23 8.65C248.23 10.615 247.075 13.09 243.415 14.125L241.825 12.535C244.375 11.98 246.37 10.975 246.37 8.35C246.37 7.375 245.845 6.91 245.185 6.91C244.6 6.91 244.015 7.315 244.015 8.11C244.015 8.785 244.57 9.22 245.185 9.22C245.89 9.22 246.505 8.62 246.025 6.835L247.435 7.225ZM255.344 13.1705C254.932 13.1705 254.578 13.0266 254.284 12.739C253.993 12.4478 253.849 12.0945 253.852 11.679C253.849 11.2741 253.993 10.9279 254.284 10.6403C254.578 10.3526 254.932 10.2088 255.344 10.2088C255.734 10.2088 256.079 10.3526 256.377 10.6403C256.679 10.9279 256.832 11.2741 256.835 11.679C256.832 11.956 256.759 12.2081 256.617 12.4354C256.478 12.6591 256.297 12.8384 256.074 12.9734C255.85 13.1048 255.607 13.1705 255.344 13.1705ZM260.031 13.1705C259.619 13.1705 259.266 13.0266 258.971 12.739C258.68 12.4478 258.536 12.0945 258.54 11.679C258.536 11.2741 258.68 10.9279 258.971 10.6403C259.266 10.3526 259.619 10.2088 260.031 10.2088C260.422 10.2088 260.766 10.3526 261.065 10.6403C261.366 10.9279 261.519 11.2741 261.523 11.679C261.519 11.956 261.446 12.2081 261.304 12.4354C261.166 12.6591 260.985 12.8384 260.761 12.9734C260.537 13.1048 260.294 13.1705 260.031 13.1705ZM264.719 13.1705C264.307 13.1705 263.953 13.0266 263.659 12.739C263.368 12.4478 263.224 12.0945 263.227 11.679C263.224 11.2741 263.368 10.9279 263.659 10.6403C263.953 10.3526 264.307 10.2088 264.719 10.2088C265.109 10.2088 265.454 10.3526 265.752 10.6403C266.054 10.9279 266.207 11.2741 266.21 11.679C266.207 11.956 266.134 12.2081 265.992 12.4354C265.853 12.6591 265.672 12.8384 265.449 12.9734C265.225 13.1048 264.982 13.1705 264.719 13.1705ZM269.958 9.295C271.308 9.295 272.388 10.375 272.388 11.71C272.388 13.06 271.308 14.14 269.958 14.14C268.623 14.14 267.528 13.06 267.528 11.71C267.528 10.375 268.623 9.295 269.958 9.295ZM269.958 13.06C270.708 13.06 271.308 12.46 271.308 11.71C271.308 10.975 270.708 10.375 269.958 10.375C269.223 10.375 268.608 10.975 268.608 11.71C268.608 12.46 269.223 13.06 269.958 13.06Z" fill="#727272"/>
</svg>
