<svg width="143" height="29" viewBox="0 0 143 29" fill="none" xmlns="http://www.w3.org/2000/svg">
<path d="M10.412 28.504C6.92 28.504 3.176 27.208 0.404 24.652L4.076 20.224C5.948 21.844 8.432 22.96 10.556 22.96C12.932 22.96 14.048 22.06 14.048 20.62C14.048 19.072 12.572 18.568 10.268 17.596L6.848 16.156C4.04 15.04 1.412 12.7 1.412 8.812C1.412 4.312 5.444 0.711999 11.132 0.711999C14.228 0.711999 17.504 1.9 19.844 4.24L16.64 8.272C14.876 6.94 13.22 6.22 11.132 6.22C9.152 6.22 7.964 7.012 7.964 8.416C7.964 9.928 9.62 10.504 11.996 11.44L15.344 12.772C18.656 14.104 20.636 16.336 20.636 20.116C20.636 24.58 16.892 28.504 10.412 28.504ZM31.2068 28.504C26.0588 28.504 23.9708 25.228 23.9708 20.404V12.52H21.1988V7.768L24.3668 7.516L25.0868 2.08H30.3788V7.516H35.2028V12.52H30.3788V20.332C30.3788 22.6 31.4588 23.5 32.9708 23.5C33.6188 23.5 34.3388 23.284 34.8428 23.104L35.8508 27.748C34.7708 28.072 33.2948 28.504 31.2068 28.504ZM43.233 28.504C39.453 28.504 37.149 25.696 37.149 22.276C37.149 17.956 40.533 15.616 48.525 14.752C48.381 13.096 47.517 12.124 45.429 12.124C43.809 12.124 42.117 12.772 40.065 13.924L37.833 9.712C40.533 8.092 43.449 7.012 46.653 7.012C51.945 7.012 54.933 9.964 54.933 16.372V28H49.713L49.281 25.948H49.101C47.409 27.46 45.501 28.504 43.233 28.504ZM45.429 23.536C46.725 23.536 47.589 22.924 48.525 21.916V18.64C44.529 19.144 43.233 20.332 43.233 21.772C43.233 22.96 44.097 23.536 45.429 23.536ZM59.8811 28V7.516H65.1011L65.5691 10.108H65.6771C67.3691 8.416 69.1331 7.012 71.9051 7.012C74.7491 7.012 76.4771 8.2 77.5211 10.396C79.2851 8.596 81.1931 7.012 83.9291 7.012C88.3931 7.012 90.3371 10.216 90.3371 15.328V28H83.9291V16.12C83.9291 13.276 83.2091 12.484 81.5891 12.484C80.6531 12.484 79.5371 13.06 78.3131 14.32V28H71.9051V16.12C71.9051 13.276 71.1491 12.484 69.5291 12.484C68.5931 12.484 67.4771 13.06 66.2891 14.32V28H59.8811ZM95.8577 28V1.18H105.29C111.158 1.18 116.018 3.304 116.018 9.928C116.018 16.3 111.122 19.108 105.434 19.108H102.302V28H95.8577ZM102.302 14.032H105.11C108.242 14.032 109.754 12.556 109.754 9.928C109.754 7.228 108.026 6.292 104.93 6.292H102.302V14.032ZM120.573 28V1.18H130.401C136.125 1.18 140.877 3.16 140.877 9.64C140.877 15.94 136.125 18.568 130.401 18.568H127.017V28H120.573ZM127.017 13.492H129.897C132.957 13.492 134.613 12.16 134.613 9.64C134.613 7.12 132.957 6.292 129.897 6.292H127.017V13.492ZM135.045 28L129.249 16.912L133.605 12.7L142.245 28H135.045Z" fill="white"/>
</svg>
