<svg width="245" height="13" viewBox="0 0 245 13" fill="none" xmlns="http://www.w3.org/2000/svg">
<path d="M7.332 11.051C7.28867 11.051 7.24967 11.0337 7.215 10.999C7.01567 10.8517 6.773 10.713 6.487 10.583C6.201 10.453 5.93233 10.3447 5.681 10.258C5.59433 10.232 5.551 10.1887 5.551 10.128C5.551 10.0933 5.564 10.0587 5.59 10.024L5.967 9.4H2.015C1.89367 9.4 1.833 9.33933 1.833 9.218V5.669C1.833 5.54767 1.89367 5.487 2.015 5.487H11.011C11.1323 5.487 11.193 5.54767 11.193 5.669V9.218C11.193 9.33933 11.1323 9.4 11.011 9.4H6.63C6.85533 9.46933 7.07633 9.55167 7.293 9.647C7.50967 9.73367 7.70467 9.83767 7.878 9.959C7.93867 9.99367 7.969 10.037 7.969 10.089C7.969 10.1237 7.956 10.1627 7.93 10.206L7.462 10.96C7.42733 11.0207 7.384 11.051 7.332 11.051ZM0.676 12.195C0.606667 12.169 0.572 12.1257 0.572 12.065C0.572 12.0303 0.585 11.9913 0.611 11.948C0.853667 11.6447 1.05733 11.3023 1.222 10.921C1.38667 10.531 1.51233 10.1627 1.599 9.816C1.625 9.70333 1.69433 9.66 1.807 9.686L2.977 9.959C3.08967 9.985 3.13733 10.05 3.12 10.154C3.08533 10.3273 3.03333 10.5223 2.964 10.739C2.90333 10.947 2.82967 11.1637 2.743 11.389C2.665 11.6057 2.57833 11.8137 2.483 12.013C2.38767 12.221 2.288 12.403 2.184 12.559C2.132 12.6543 2.054 12.6803 1.95 12.637L0.676 12.195ZM6.383 12.715C6.15767 12.715 5.928 12.715 5.694 12.715C5.46867 12.715 5.24767 12.7063 5.031 12.689C4.459 12.6717 4.05167 12.5243 3.809 12.247C3.56633 11.9783 3.445 11.5797 3.445 11.051V9.972C3.445 9.85067 3.50567 9.79 3.627 9.79H4.836C4.95733 9.79 5.018 9.85067 5.018 9.972V10.661C5.018 10.869 5.04833 11.025 5.109 11.129C5.17833 11.2243 5.34733 11.2807 5.616 11.298C5.91933 11.324 6.25733 11.337 6.63 11.337C7.02867 11.337 7.41 11.324 7.774 11.298C7.93 11.2893 8.06 11.2677 8.164 11.233C8.27667 11.1983 8.36333 11.142 8.424 11.064C8.49333 10.986 8.54533 10.8863 8.58 10.765C8.61467 10.6437 8.645 10.492 8.671 10.31C8.68833 10.1627 8.762 10.115 8.892 10.167L9.919 10.622C10.023 10.674 10.0663 10.752 10.049 10.856C9.997 11.2027 9.919 11.493 9.815 11.727C9.711 11.961 9.568 12.143 9.386 12.273C9.21267 12.4117 8.99167 12.5113 8.723 12.572C8.463 12.6413 8.14667 12.6803 7.774 12.689C7.55733 12.6977 7.332 12.702 7.098 12.702C6.864 12.7107 6.62567 12.715 6.383 12.715ZM9.581 8.373V7.879H3.445V8.373H9.581ZM9.581 6.995V6.514H3.445V6.995H9.581ZM11.102 12.403C11.0327 12.403 10.985 12.364 10.959 12.286C10.8117 11.922 10.6427 11.558 10.452 11.194C10.27 10.83 10.036 10.5093 9.75 10.232C9.70667 10.1887 9.685 10.1453 9.685 10.102C9.685 10.05 9.724 10.011 9.802 9.985L10.829 9.569C10.881 9.55167 10.9113 9.543 10.92 9.543C10.972 9.543 11.024 9.569 11.076 9.621C11.3273 9.89833 11.5657 10.2147 11.791 10.57C12.025 10.9167 12.2287 11.2807 12.402 11.662C12.4107 11.6793 12.415 11.7097 12.415 11.753C12.415 11.8223 12.376 11.87 12.298 11.896L11.193 12.377C11.1583 12.3943 11.128 12.403 11.102 12.403ZM8.06 3.784C8.10333 3.66267 8.14233 3.537 8.177 3.407C8.22033 3.277 8.25933 3.15133 8.294 3.03H4.719C4.76233 3.16 4.80133 3.29 4.836 3.42C4.87933 3.54133 4.92267 3.66267 4.966 3.784H8.06ZM0.884 5.045C0.762667 5.045 0.702 4.98433 0.702 4.863V3.966C0.702 3.84467 0.762667 3.784 0.884 3.784H3.237C3.17633 3.55867 3.09833 3.30733 3.003 3.03H1.469C1.34767 3.03 1.287 2.96933 1.287 2.848V2.003C1.287 1.88167 1.34767 1.821 1.469 1.821H5.59V1.275C5.59 1.15367 5.65067 1.093 5.772 1.093H7.202C7.32333 1.093 7.384 1.15367 7.384 1.275V1.821H11.518C11.6393 1.821 11.7 1.88167 11.7 2.003V2.848C11.7 2.96933 11.6393 3.03 11.518 3.03H9.997C9.95367 3.16 9.91467 3.29 9.88 3.42C9.84533 3.54133 9.80633 3.66267 9.763 3.784H12.103C12.2243 3.784 12.285 3.84467 12.285 3.966V4.863C12.285 4.98433 12.2243 5.045 12.103 5.045H0.884ZM20.943 12.975C20.8217 12.975 20.761 12.9143 20.761 12.793L20.8 8.815C20.514 9.439 20.1587 10.063 19.734 10.687C19.318 11.3023 18.85 11.831 18.33 12.273C18.2953 12.3077 18.2563 12.325 18.213 12.325C18.1523 12.325 18.1047 12.2947 18.07 12.234L17.524 11.415H14.118C13.9967 11.415 13.936 11.3543 13.936 11.233V2.016C13.936 1.89467 13.9967 1.834 14.118 1.834H17.485C17.6063 1.834 17.667 1.89467 17.667 2.016V10.544C18.187 10.102 18.6593 9.59067 19.084 9.01C19.5087 8.42067 19.8597 7.84 20.137 7.268H18.226C18.1047 7.268 18.044 7.20733 18.044 7.086V5.916C18.044 5.79467 18.1047 5.734 18.226 5.734H20.761V4.382H18.473C18.3517 4.382 18.291 4.32133 18.291 4.2V3.03C18.291 2.90867 18.3517 2.848 18.473 2.848H20.761V1.288C20.761 1.16667 20.8217 1.106 20.943 1.106H22.178C22.2993 1.106 22.36 1.16667 22.36 1.288V2.848H24.804C24.9253 2.848 24.986 2.90867 24.986 3.03V4.2C24.986 4.32133 24.9253 4.382 24.804 4.382H22.36V5.734H25.103C25.2243 5.734 25.285 5.79467 25.285 5.916V7.086C25.285 7.20733 25.2243 7.268 25.103 7.268H22.945C23.101 7.57133 23.2743 7.879 23.465 8.191C23.6557 8.49433 23.8593 8.79333 24.076 9.088C24.2927 9.374 24.518 9.647 24.752 9.907C24.9947 10.167 25.2417 10.4053 25.493 10.622C25.545 10.674 25.571 10.7217 25.571 10.765C25.571 10.791 25.558 10.8257 25.532 10.869L24.778 12.078C24.7347 12.1387 24.6913 12.169 24.648 12.169C24.6047 12.169 24.5613 12.1473 24.518 12.104C24.076 11.6447 23.6687 11.1247 23.296 10.544C22.9233 9.96333 22.6027 9.387 22.334 8.815L22.373 12.793C22.373 12.9143 22.3123 12.975 22.191 12.975H20.943ZM16.328 9.92V3.329H15.288V9.92H16.328ZM33.982 12.598C33.6093 12.598 33.2453 12.585 32.89 12.559C32.5433 12.533 32.2053 12.4983 31.876 12.455C31.122 12.3337 30.5543 12.078 30.173 11.688C29.8003 11.298 29.614 10.856 29.614 10.362C29.614 9.98933 29.7223 9.61233 29.939 9.231C30.1643 8.841 30.5067 8.48567 30.966 8.165C31.226 7.97433 31.5207 7.79233 31.85 7.619C32.1793 7.44567 32.539 7.27233 32.929 7.099C32.6603 6.77833 32.3093 6.618 31.876 6.618C31.5293 6.618 31.1697 6.71767 30.797 6.917C30.433 7.10767 30.0863 7.39367 29.757 7.775L28.522 9.4C28.4873 9.452 28.4397 9.478 28.379 9.478C28.3357 9.478 28.2967 9.46067 28.262 9.426L27.183 8.581C27.131 8.53767 27.105 8.49433 27.105 8.451C27.105 8.40767 27.1267 8.36433 27.17 8.321C27.7333 7.749 28.2577 7.12933 28.743 6.462C29.237 5.786 29.64 5.10133 29.952 4.408H27.729C27.6077 4.408 27.547 4.34733 27.547 4.226V3.082C27.547 2.96067 27.6077 2.9 27.729 2.9H30.537C30.6323 2.64867 30.7147 2.406 30.784 2.172C30.862 1.938 30.9357 1.70833 31.005 1.483C31.031 1.37033 31.1003 1.327 31.213 1.353L32.643 1.678C32.773 1.704 32.8163 1.77767 32.773 1.899C32.7037 2.08967 32.6343 2.26733 32.565 2.432C32.5043 2.59667 32.4437 2.75267 32.383 2.9H36.374C36.4953 2.9 36.556 2.96067 36.556 3.082V4.226C36.556 4.34733 36.4953 4.408 36.374 4.408H31.746L31.083 5.63C31.473 5.45667 31.8803 5.37 32.305 5.37C32.721 5.37 33.1197 5.45667 33.501 5.63C33.8823 5.80333 34.203 6.085 34.463 6.475C34.8703 6.32767 35.2777 6.18033 35.685 6.033C36.101 5.877 36.5213 5.72533 36.946 5.578C36.9633 5.56933 36.9937 5.565 37.037 5.565C37.1063 5.565 37.154 5.604 37.18 5.682L37.661 6.904C37.6697 6.92133 37.674 6.94733 37.674 6.982C37.674 7.06 37.6307 7.112 37.544 7.138C37.102 7.268 36.6643 7.398 36.231 7.528C35.8063 7.64933 35.3903 7.775 34.983 7.905C35.009 8.113 35.022 8.33833 35.022 8.581C35.022 8.95367 34.983 9.36967 34.905 9.829C34.8963 9.94167 34.8313 9.998 34.71 9.998L33.397 10.011C33.2497 10.011 33.1977 9.94167 33.241 9.803C33.345 9.31767 33.3883 8.87567 33.371 8.477C33.0503 8.61567 32.76 8.75433 32.5 8.893C32.24 9.03167 32.0103 9.18333 31.811 9.348C31.4643 9.634 31.291 9.91133 31.291 10.18C31.291 10.5267 31.5553 10.765 32.084 10.895C32.5 10.999 33.0287 11.051 33.67 11.051C34.138 11.051 34.632 11.025 35.152 10.973C35.672 10.921 36.192 10.8473 36.712 10.752H36.764C36.8593 10.752 36.907 10.8083 36.907 10.921L36.881 12.221C36.881 12.3423 36.8247 12.4073 36.712 12.416C36.2267 12.4767 35.7587 12.52 35.308 12.546C34.8573 12.5807 34.4153 12.598 33.982 12.598ZM43.784 12.637C43.6627 12.637 43.602 12.5763 43.602 12.455V11.337C43.602 11.2157 43.6627 11.155 43.784 11.155H46.852V10.128H44.369C44.2477 10.128 44.187 10.0673 44.187 9.946V8.893C44.187 8.77167 44.2477 8.711 44.369 8.711H46.852V7.801H44.395C44.2737 7.801 44.213 7.74033 44.213 7.619V1.652C44.213 1.53067 44.2737 1.47 44.395 1.47H50.882C51.0033 1.47 51.064 1.53067 51.064 1.652V7.619C51.064 7.74033 51.0033 7.801 50.882 7.801H48.36V8.711H50.869C50.9903 8.711 51.051 8.77167 51.051 8.893V9.946C51.051 10.0673 50.9903 10.128 50.869 10.128H48.36V11.155H51.298C51.4193 11.155 51.48 11.2157 51.48 11.337V12.455C51.48 12.5763 51.4193 12.637 51.298 12.637H43.784ZM39.858 11.87C39.78 11.87 39.7323 11.8223 39.715 11.727L39.507 10.479C39.4983 10.4703 39.494 10.453 39.494 10.427C39.494 10.3317 39.546 10.2797 39.65 10.271C39.8493 10.2277 40.0617 10.1757 40.287 10.115C40.521 10.0543 40.7637 9.98933 41.015 9.92V6.995H40.014C39.8927 6.995 39.832 6.93433 39.832 6.813V5.656C39.832 5.53467 39.8927 5.474 40.014 5.474H41.015V3.199H39.897C39.7757 3.199 39.715 3.13833 39.715 3.017V1.86C39.715 1.73867 39.7757 1.678 39.897 1.678H43.654C43.7753 1.678 43.836 1.73867 43.836 1.86V3.017C43.836 3.13833 43.7753 3.199 43.654 3.199H42.588V5.474H43.563C43.6843 5.474 43.745 5.53467 43.745 5.656V6.813C43.745 6.93433 43.6843 6.995 43.563 6.995H42.588V9.413C43.004 9.26567 43.355 9.127 43.641 8.997C43.667 8.97967 43.6973 8.971 43.732 8.971C43.81 8.971 43.849 9.023 43.849 9.127V10.349C43.849 10.453 43.8013 10.5223 43.706 10.557C43.0907 10.817 42.458 11.0597 41.808 11.285C41.158 11.5017 40.534 11.6967 39.936 11.87H39.858ZM46.904 6.436V5.227H45.669V6.436H46.904ZM46.904 3.979V2.861H45.669V3.979H46.904ZM49.53 6.436V5.227H48.308V6.436H49.53ZM49.53 3.979V2.861H48.308V3.979H49.53ZM56.186 12.923C56.082 12.923 56.0083 12.871 55.965 12.767L55.627 11.805C55.6183 11.7877 55.614 11.7617 55.614 11.727C55.614 11.6403 55.6703 11.597 55.783 11.597C56.0777 11.6057 56.3117 11.597 56.485 11.571C56.6583 11.545 56.7883 11.506 56.875 11.454C56.9617 11.402 57.0137 11.337 57.031 11.259C57.057 11.1723 57.07 11.0727 57.07 10.96V10.128H54.444C54.4007 10.596 54.34 11.0597 54.262 11.519C54.184 11.9697 54.0627 12.3987 53.898 12.806C53.872 12.8753 53.8243 12.91 53.755 12.91C53.7377 12.91 53.703 12.9013 53.651 12.884L52.533 12.325C52.429 12.273 52.403 12.1907 52.455 12.078C52.715 11.5407 52.897 10.908 53.001 10.18C53.105 9.44333 53.157 8.56367 53.157 7.541V5.227L52.936 5.422C52.9013 5.45667 52.8623 5.474 52.819 5.474C52.7583 5.474 52.715 5.43067 52.689 5.344L52.364 4.109C52.3553 4.09167 52.351 4.06133 52.351 4.018C52.351 3.95733 52.377 3.90967 52.429 3.875C52.8103 3.537 53.1613 3.12967 53.482 2.653C53.8027 2.16767 54.0497 1.704 54.223 1.262C54.2577 1.16667 54.327 1.12333 54.431 1.132L55.575 1.223C55.6617 1.23167 55.705 1.27933 55.705 1.366C55.705 1.42667 55.6963 1.47433 55.679 1.509L55.523 1.899H57.72C57.8413 1.899 57.902 1.95967 57.902 2.081V2.991C57.902 3.07767 57.8847 3.15567 57.85 3.225C57.772 3.37233 57.681 3.51967 57.577 3.667C57.4817 3.81433 57.3863 3.95733 57.291 4.096H58.24C58.3613 4.096 58.422 4.15667 58.422 4.278V11.207C58.422 11.5537 58.3873 11.8397 58.318 12.065C58.2573 12.2903 58.1403 12.468 57.967 12.598C57.8023 12.728 57.5727 12.8147 57.278 12.858C56.992 12.91 56.628 12.9317 56.186 12.923ZM55.25 8.984V7.697H54.496V8.984H55.25ZM57.083 8.984V7.697H56.29V8.984H57.083ZM55.25 6.553V5.383H54.496V6.553H55.25ZM57.083 6.553V5.383H56.29V6.553H57.083ZM55.744 4.096C55.8653 3.94 55.978 3.77967 56.082 3.615C56.1947 3.44167 56.29 3.29 56.368 3.16H54.873C54.769 3.33333 54.665 3.498 54.561 3.654C54.457 3.80133 54.3443 3.94867 54.223 4.096H55.744ZM61.126 12.975C61.0047 12.975 60.944 12.9143 60.944 12.793V10.973H58.968C58.8467 10.973 58.786 10.9123 58.786 10.791V9.738C58.786 9.61667 58.8467 9.556 58.968 9.556H60.944V8.386H60.047C59.943 8.68067 59.826 8.95367 59.696 9.205C59.6527 9.30033 59.5747 9.32633 59.462 9.283L58.617 8.945C58.5043 8.893 58.474 8.815 58.526 8.711C58.7253 8.321 58.8813 7.91367 58.994 7.489C59.1067 7.05567 59.1977 6.62667 59.267 6.202C59.2843 6.08067 59.3537 6.033 59.475 6.059L60.359 6.267C60.463 6.293 60.5107 6.36233 60.502 6.475L60.411 6.956H60.944V6.072C60.944 5.95067 61.0047 5.89 61.126 5.89H62.309C62.4303 5.89 62.491 5.95067 62.491 6.072V6.956H64.025C64.1463 6.956 64.207 7.01667 64.207 7.138V8.204C64.207 8.32533 64.1463 8.386 64.025 8.386H62.491V9.556H64.376C64.4973 9.556 64.558 9.61667 64.558 9.738V10.791C64.558 10.9123 64.4973 10.973 64.376 10.973H62.491V12.793C62.491 12.9143 62.4303 12.975 62.309 12.975H61.126ZM59.683 5.929C59.631 5.929 59.5833 5.90733 59.54 5.864L58.721 5.045C58.6777 5.00167 58.656 4.96267 58.656 4.928C58.656 4.88467 58.6907 4.84133 58.76 4.798C59.15 4.57267 59.4533 4.31267 59.67 4.018C59.8867 3.71467 60.034 3.342 60.112 2.9H58.903C58.7817 2.9 58.721 2.83933 58.721 2.718V1.717C58.721 1.59567 58.7817 1.535 58.903 1.535H63.973C64.0943 1.535 64.155 1.59567 64.155 1.717C64.155 1.821 64.155 1.951 64.155 2.107C64.155 2.263 64.1507 2.432 64.142 2.614C64.142 2.78733 64.1377 2.965 64.129 3.147C64.1203 3.32033 64.1117 3.48067 64.103 3.628C64.0857 4.00067 64.0423 4.32133 63.973 4.59C63.9037 4.85 63.7823 5.06233 63.609 5.227C63.4443 5.39167 63.2147 5.513 62.92 5.591C62.634 5.66033 62.2613 5.69067 61.802 5.682C61.698 5.682 61.6287 5.63433 61.594 5.539L61.321 4.655C61.3123 4.63767 61.308 4.616 61.308 4.59C61.308 4.50333 61.3687 4.46 61.49 4.46C61.7587 4.46867 61.9667 4.46 62.114 4.434C62.27 4.39933 62.387 4.343 62.465 4.265C62.543 4.187 62.5907 4.08733 62.608 3.966C62.634 3.84467 62.6513 3.69733 62.66 3.524C62.6687 3.43733 62.6687 3.33333 62.66 3.212C62.66 3.09067 62.66 2.98667 62.66 2.9H61.555C61.4597 3.55 61.2777 4.12633 61.009 4.629C60.749 5.13167 60.3417 5.55633 59.787 5.903C59.761 5.92033 59.7263 5.929 59.683 5.929ZM68.861 12.858C68.7743 12.858 68.7093 12.819 68.666 12.741L67.977 11.402C67.9597 11.3673 67.951 11.337 67.951 11.311C67.951 11.2417 68.0073 11.1983 68.12 11.181C69.1687 11.1117 70.005 10.9297 70.629 10.635C71.253 10.3317 71.6517 9.959 71.825 9.517C71.6863 9.68167 71.4913 9.80733 71.24 9.894C70.9887 9.972 70.7243 10.011 70.447 10.011C70.135 10.011 69.823 9.959 69.511 9.855C69.199 9.751 68.9433 9.58633 68.744 9.361C68.5447 9.13567 68.393 8.88 68.289 8.594C68.1937 8.29933 68.146 8.00033 68.146 7.697C68.146 7.333 68.211 6.982 68.341 6.644C68.4797 6.306 68.6833 6.02433 68.952 5.799C69.2033 5.58233 69.4763 5.43067 69.771 5.344C70.0743 5.25733 70.3647 5.214 70.642 5.214C70.8067 5.214 70.9583 5.227 71.097 5.253C71.2443 5.27033 71.3787 5.30067 71.5 5.344L71.487 4.512H66.209C66.0877 4.512 66.027 4.45133 66.027 4.33V3.03C66.027 2.90867 66.0877 2.848 66.209 2.848H71.448L71.422 1.613V1.6C71.422 1.48733 71.4827 1.431 71.604 1.431H73.06C73.1813 1.431 73.242 1.49167 73.242 1.613L73.229 2.848H76.804C76.9253 2.848 76.986 2.90867 76.986 3.03V4.33C76.986 4.45133 76.9253 4.512 76.804 4.512H73.216V5.175L73.229 6.761C73.333 6.96033 73.4197 7.203 73.489 7.489C73.567 7.76633 73.606 8.08267 73.606 8.438C73.606 8.62867 73.593 8.828 73.567 9.036C73.5063 9.51267 73.3547 9.96767 73.112 10.401C72.878 10.8257 72.5617 11.2113 72.163 11.558C71.773 11.896 71.3007 12.1777 70.746 12.403C70.2 12.637 69.5803 12.7887 68.887 12.858H68.861ZM70.746 8.568C70.876 8.568 71.0017 8.542 71.123 8.49C71.253 8.438 71.357 8.36433 71.435 8.269C71.5303 8.14767 71.591 8.022 71.617 7.892C71.643 7.762 71.656 7.63633 71.656 7.515C71.656 7.44567 71.6517 7.385 71.643 7.333C71.643 7.281 71.6387 7.23333 71.63 7.19C71.604 7.09467 71.5563 7.01233 71.487 6.943C71.4263 6.865 71.3657 6.80433 71.305 6.761C71.2357 6.71767 71.1533 6.683 71.058 6.657C70.9713 6.62233 70.8803 6.605 70.785 6.605C70.655 6.605 70.525 6.63533 70.395 6.696C70.265 6.75667 70.1523 6.84767 70.057 6.969C69.9183 7.15967 69.849 7.37633 69.849 7.619C69.849 7.86167 69.914 8.06967 70.044 8.243C70.122 8.35567 70.2217 8.438 70.343 8.49C70.473 8.542 70.6073 8.568 70.746 8.568ZM83.8459 12.793C83.3693 12.793 82.9099 12.7453 82.4679 12.65C82.0346 12.5547 81.6576 12.403 81.3369 12.195C80.9816 11.9697 80.7173 11.6967 80.5439 11.376C80.3706 11.0467 80.2839 10.7173 80.2839 10.388C80.2839 10.1193 80.3359 9.86367 80.4399 9.621C80.5526 9.36967 80.7216 9.153 80.9469 8.971C81.1636 8.79767 81.4149 8.66333 81.7009 8.568C81.9956 8.47267 82.3033 8.425 82.6239 8.425C82.9446 8.425 83.2609 8.477 83.5729 8.581C83.8849 8.685 84.1579 8.84967 84.3919 9.075C84.6346 9.29167 84.8209 9.569 84.9509 9.907C85.0809 10.245 85.1286 10.648 85.0939 11.116C85.5013 10.9947 85.8479 10.843 86.1339 10.661C86.5066 10.4357 86.7753 10.1757 86.9399 9.881C87.1046 9.58633 87.1869 9.296 87.1869 9.01C87.1869 8.79333 87.1436 8.58533 87.0569 8.386C86.9703 8.18667 86.8533 8.01333 86.7059 7.866C86.4546 7.61467 86.1166 7.41533 85.6919 7.268C85.2759 7.112 84.8079 7.034 84.2879 7.034C83.7593 7.034 83.1959 7.12067 82.5979 7.294C82.0086 7.46733 81.4063 7.762 80.7909 8.178C80.5829 8.334 80.3489 8.51167 80.0889 8.711C79.8376 8.90167 79.5603 9.11833 79.2569 9.361C79.2136 9.39567 79.1703 9.413 79.1269 9.413C79.0749 9.413 79.0273 9.387 78.9839 9.335L78.1519 8.178C78.1173 8.126 78.0999 8.087 78.0999 8.061C78.0999 8.009 78.1303 7.96133 78.1909 7.918C78.8149 7.502 79.4043 7.10767 79.9589 6.735C80.5223 6.35367 81.0553 5.994 81.5579 5.656C82.0693 5.30933 82.5589 4.97567 83.0269 4.655C83.4949 4.33433 83.9543 4.018 84.4049 3.706C83.6769 3.72333 82.9446 3.745 82.2079 3.771C81.4799 3.78833 80.7736 3.80567 80.0889 3.823C79.9676 3.823 79.9069 3.76233 79.9069 3.641L79.8939 2.315C79.8939 2.19367 79.9546 2.133 80.0759 2.133H87.2129C87.3343 2.133 87.3949 2.19367 87.3949 2.315L87.4079 3.433C87.4079 3.52833 87.3689 3.602 87.2909 3.654L83.9369 5.838C84.3443 5.76 84.7429 5.721 85.1329 5.721C85.6529 5.721 86.1383 5.79033 86.5889 5.929C87.0483 6.06767 87.4556 6.27567 87.8109 6.553C88.1836 6.85633 88.4653 7.216 88.6559 7.632C88.8466 8.03933 88.9419 8.47267 88.9419 8.932C88.9419 9.22667 88.8986 9.52567 88.8119 9.829C88.7253 10.1323 88.5953 10.427 88.4219 10.713C88.2486 10.9903 88.0276 11.2547 87.7589 11.506C87.4989 11.7487 87.1869 11.9653 86.8229 12.156C86.4156 12.3553 85.9519 12.5113 85.4319 12.624C84.9119 12.7367 84.3833 12.793 83.8459 12.793ZM83.5209 11.337C83.5556 11.207 83.5729 11.0727 83.5729 10.934C83.5729 10.7347 83.5383 10.5613 83.4689 10.414C83.4083 10.258 83.3259 10.1237 83.2219 10.011C83.1179 9.89833 83.0009 9.816 82.8709 9.764C82.7409 9.70333 82.6109 9.673 82.4809 9.673C82.2903 9.673 82.1343 9.72067 82.0129 9.816C81.8569 9.92867 81.7789 10.0847 81.7789 10.284C81.7789 10.388 81.8049 10.492 81.8569 10.596C81.9089 10.7 81.9826 10.791 82.0779 10.869C82.2426 11.025 82.4506 11.142 82.7019 11.22C82.9533 11.2893 83.2263 11.3283 83.5209 11.337ZM92.2439 12.312C92.1833 12.312 92.1313 12.2773 92.0879 12.208L91.2299 10.895C91.2039 10.8517 91.1909 10.817 91.1909 10.791C91.1909 10.7217 91.2343 10.674 91.3209 10.648C92.1963 10.3793 93.0109 10.0023 93.7649 9.517C94.5189 9.023 95.1906 8.48133 95.7799 7.892C96.3693 7.294 96.8589 6.67433 97.2489 6.033C97.6476 5.383 97.9206 4.772 98.0679 4.2C97.1406 4.2 96.2046 4.20867 95.2599 4.226C94.3239 4.23467 93.3923 4.239 92.4649 4.239C92.3436 4.239 92.2829 4.17833 92.2829 4.057V2.705C92.2829 2.58367 92.3436 2.523 92.4649 2.523H100.226C100.356 2.523 100.412 2.588 100.395 2.718C100.256 3.58467 100.009 4.42967 99.6539 5.253C99.2986 6.06767 98.8566 6.84767 98.3279 7.593C99.0733 8.12167 99.7579 8.659 100.382 9.205C101.006 9.751 101.556 10.31 102.033 10.882C102.068 10.934 102.085 10.973 102.085 10.999C102.085 11.0423 102.059 11.0857 102.007 11.129L100.759 12.26C100.707 12.2947 100.668 12.312 100.642 12.312C100.59 12.312 100.547 12.2817 100.512 12.221C100.096 11.6663 99.6149 11.0987 99.0689 10.518C98.5229 9.93733 97.9249 9.4 97.2749 8.906C96.5729 9.66867 95.8016 10.3447 94.9609 10.934C94.1289 11.5147 93.2536 11.9697 92.3349 12.299L92.2439 12.312ZM105.861 12.767C105.783 12.767 105.726 12.7367 105.692 12.676L104.717 11.454C104.682 11.402 104.665 11.363 104.665 11.337C104.665 11.2763 104.712 11.233 104.808 11.207C105.761 10.973 106.554 10.661 107.187 10.271C107.819 9.87233 108.331 9.41733 108.721 8.906C109.111 8.39467 109.405 7.83133 109.605 7.216C109.804 6.60067 109.943 5.955 110.021 5.279H106.849C106.571 5.86833 106.246 6.41867 105.874 6.93C105.501 7.43267 105.076 7.88333 104.6 8.282C104.565 8.31667 104.522 8.334 104.47 8.334C104.426 8.334 104.383 8.31667 104.34 8.282L103.157 7.307C103.113 7.26367 103.092 7.22033 103.092 7.177C103.092 7.125 103.118 7.08167 103.17 7.047C103.62 6.70033 104.015 6.31033 104.353 5.877C104.699 5.435 104.994 4.97567 105.237 4.499C105.479 4.02233 105.674 3.54133 105.822 3.056C105.978 2.57067 106.095 2.107 106.173 1.665C106.199 1.55233 106.268 1.50033 106.381 1.509L107.811 1.665C107.932 1.68233 107.984 1.75167 107.967 1.873C107.906 2.159 107.841 2.445 107.772 2.731C107.702 3.017 107.62 3.303 107.525 3.589H114.35C114.471 3.589 114.532 3.64967 114.532 3.771V5.097C114.532 5.21833 114.471 5.279 114.35 5.279H111.854C111.767 6.06767 111.611 6.84767 111.386 7.619C111.169 8.38167 110.835 9.09667 110.385 9.764C109.934 10.4227 109.349 11.012 108.63 11.532C107.91 12.052 107.013 12.4593 105.939 12.754L105.861 12.767ZM116.859 7.957C116.755 7.957 116.703 7.905 116.703 7.801V6.319C116.703 6.215 116.755 6.163 116.859 6.163H126.765C126.869 6.163 126.921 6.215 126.921 6.319V7.814C126.921 7.918 126.869 7.97 126.765 7.97L116.859 7.957ZM132.095 12.715C132.025 12.715 131.965 12.6717 131.913 12.585L131.133 11.181C131.107 11.1377 131.094 11.103 131.094 11.077C131.094 10.999 131.146 10.96 131.25 10.96C132.177 10.908 133.013 10.765 133.759 10.531C134.504 10.2883 135.145 9.98067 135.683 9.608C136.229 9.22667 136.662 8.789 136.983 8.295C137.312 7.801 137.524 7.27667 137.62 6.722C136.441 6.722 135.189 6.72633 133.863 6.735C132.545 6.74367 131.254 6.75667 129.989 6.774C129.867 6.774 129.807 6.71333 129.807 6.592V5.266C129.807 5.14467 129.867 5.084 129.989 5.084H139.531C139.652 5.084 139.713 5.14033 139.713 5.253C139.661 6.32767 139.461 7.30267 139.115 8.178C138.768 9.04467 138.274 9.79867 137.633 10.44C137 11.0727 136.224 11.584 135.306 11.974C134.387 12.364 133.334 12.611 132.147 12.715H132.095ZM130.951 3.641C130.829 3.641 130.769 3.58033 130.769 3.459V2.185C130.769 2.06367 130.829 2.003 130.951 2.003L138.595 1.99C138.716 1.99 138.777 2.05067 138.777 2.172V3.459C138.777 3.58033 138.716 3.641 138.595 3.641H130.951ZM144.523 12.546C144.445 12.546 144.384 12.507 144.341 12.429L143.587 11.012C143.569 10.96 143.561 10.9297 143.561 10.921C143.561 10.8343 143.613 10.7867 143.717 10.778C144.947 10.57 145.974 10.2493 146.798 9.816C147.621 9.374 148.288 8.87133 148.8 8.308C149.32 7.74467 149.71 7.14233 149.97 6.501C150.238 5.85967 150.425 5.227 150.529 4.603C149.931 4.61167 149.302 4.62033 148.644 4.629C147.994 4.63767 147.339 4.64633 146.681 4.655C146.022 4.655 145.376 4.65933 144.744 4.668C144.111 4.67667 143.517 4.681 142.963 4.681C142.85 4.681 142.794 4.62033 142.794 4.499V3.108C142.794 2.98667 142.854 2.926 142.976 2.926L151.127 2.913C151.023 2.68767 150.906 2.46667 150.776 2.25C150.654 2.02467 150.52 1.81233 150.373 1.613C150.338 1.57833 150.321 1.53933 150.321 1.496C150.321 1.43533 150.36 1.392 150.438 1.366L151.14 1.119C151.174 1.10167 151.205 1.093 151.231 1.093C151.283 1.093 151.335 1.119 151.387 1.171C151.603 1.431 151.803 1.71267 151.985 2.016C152.167 2.31933 152.314 2.61833 152.427 2.913C152.548 2.913 152.609 2.97367 152.609 3.095C152.539 4.35167 152.327 5.50433 151.972 6.553C151.616 7.593 151.109 8.51167 150.451 9.309C149.801 10.1063 148.986 10.778 148.007 11.324C147.036 11.87 145.892 12.273 144.575 12.533C144.557 12.533 144.544 12.533 144.536 12.533C144.536 12.5417 144.531 12.546 144.523 12.546ZM153.181 3.017C153.12 3.017 153.068 2.978 153.025 2.9C152.912 2.614 152.765 2.31067 152.583 1.99C152.409 1.66933 152.219 1.379 152.011 1.119C151.976 1.08433 151.959 1.04533 151.959 1.002C151.959 0.949999 151.998 0.910999 152.076 0.885L152.752 0.638C152.769 0.629333 152.799 0.624999 152.843 0.624999C152.895 0.624999 152.947 0.650999 152.999 0.703C153.198 0.936999 153.397 1.21867 153.597 1.548C153.805 1.86867 153.974 2.185 154.104 2.497C154.121 2.549 154.13 2.57933 154.13 2.588C154.13 2.65733 154.086 2.705 154 2.731L153.259 3.004C153.241 3.01267 153.215 3.017 153.181 3.017ZM159.94 12.169C159.836 12.169 159.784 12.1083 159.784 11.987V2.484C159.784 2.36267 159.844 2.302 159.966 2.302H161.409C161.53 2.302 161.591 2.36267 161.591 2.484L161.526 9.855C161.812 9.74233 162.089 9.57767 162.358 9.361C162.635 9.14433 162.895 8.893 163.138 8.607C163.38 8.31233 163.597 7.99167 163.788 7.645C163.987 7.29833 164.152 6.93867 164.282 6.566C164.325 6.488 164.373 6.449 164.425 6.449C164.459 6.449 164.494 6.462 164.529 6.488L165.634 7.411C165.72 7.47167 165.746 7.541 165.712 7.619C165.495 8.17367 165.209 8.71533 164.854 9.244C164.507 9.764 164.091 10.232 163.606 10.648C163.129 11.064 162.587 11.4107 161.981 11.688C161.374 11.9567 160.707 12.117 159.979 12.169H159.94ZM155.156 12.39C155.138 12.39 155.095 12.3727 155.026 12.338L153.817 11.324C153.765 11.2807 153.739 11.2373 153.739 11.194C153.739 11.1507 153.769 11.1073 153.83 11.064C154.428 10.7 154.904 10.284 155.26 9.816C155.615 9.33933 155.888 8.815 156.079 8.243C156.269 7.671 156.391 7.05133 156.443 6.384C156.503 5.71667 156.534 5.00167 156.534 4.239C156.534 3.98767 156.534 3.73633 156.534 3.485C156.534 3.225 156.529 2.95633 156.521 2.679C156.521 2.55767 156.581 2.497 156.703 2.497H158.107C158.228 2.497 158.289 2.57067 158.289 2.718C158.289 3.836 158.276 4.863 158.25 5.799C158.224 6.72633 158.115 7.58 157.925 8.36C157.743 9.14 157.448 9.855 157.041 10.505C156.633 11.155 156.048 11.766 155.286 12.338C155.251 12.3727 155.208 12.39 155.156 12.39ZM167.233 10.375C167.146 10.349 167.103 10.3057 167.103 10.245C167.103 10.2103 167.116 10.1757 167.142 10.141C167.679 9.283 168.169 8.425 168.611 7.567C169.061 6.709 169.443 5.812 169.755 4.876H167.675C167.553 4.876 167.493 4.81533 167.493 4.694V3.446C167.493 3.32467 167.553 3.264 167.675 3.264H170.132C170.279 2.70933 170.396 2.14167 170.483 1.561C170.5 1.44833 170.565 1.39633 170.678 1.405L172.095 1.509C172.225 1.52633 172.277 1.59567 172.251 1.717C172.199 1.98567 172.142 2.25 172.082 2.51C172.03 2.76133 171.969 3.01267 171.9 3.264H173.512C173.633 3.264 173.694 3.32467 173.694 3.446V4.694C173.694 4.81533 173.633 4.876 173.512 4.876H171.51C171.18 5.89867 170.799 6.88233 170.366 7.827C169.941 8.77167 169.447 9.72933 168.884 10.7C168.832 10.7867 168.754 10.817 168.65 10.791L167.233 10.375ZM172.823 11.259C172.97 11.259 173.109 11.2417 173.239 11.207C173.377 11.1723 173.499 11.116 173.603 11.038C173.776 10.9167 173.884 10.7607 173.928 10.57C173.971 10.3707 174.001 10.1453 174.019 9.894C173.629 9.74667 173.269 9.673 172.94 9.673C172.576 9.673 172.272 9.75967 172.03 9.933C171.926 10.0023 171.848 10.089 171.796 10.193C171.752 10.2883 171.731 10.3837 171.731 10.479C171.731 10.6783 171.809 10.843 171.965 10.973C172.069 11.0683 172.194 11.142 172.342 11.194C172.498 11.2373 172.658 11.259 172.823 11.259ZM172.771 12.689C172.355 12.689 171.956 12.6197 171.575 12.481C171.193 12.351 170.881 12.1387 170.639 11.844C170.474 11.662 170.353 11.4627 170.275 11.246C170.197 11.0207 170.158 10.7953 170.158 10.57C170.158 10.2407 170.231 9.92433 170.379 9.621C170.535 9.309 170.764 9.04467 171.068 8.828C171.328 8.62867 171.609 8.49 171.913 8.412C172.225 8.32533 172.545 8.282 172.875 8.282C173.057 8.282 173.239 8.295 173.421 8.321C173.611 8.33833 173.802 8.36867 173.993 8.412C173.984 8.18667 173.98 7.957 173.98 7.723C173.98 7.489 173.98 7.25933 173.98 7.034C173.98 6.83467 173.98 6.63967 173.98 6.449C173.98 6.25833 173.984 6.06767 173.993 5.877C174.01 5.75567 174.075 5.695 174.188 5.695H175.488C175.6 5.695 175.657 5.747 175.657 5.851C175.657 6.059 175.652 6.27133 175.644 6.488C175.635 6.696 175.631 6.91267 175.631 7.138C175.631 7.44133 175.631 7.75333 175.631 8.074C175.639 8.386 175.648 8.698 175.657 9.01C176.142 9.23533 176.597 9.49533 177.022 9.79C177.455 10.076 177.836 10.3707 178.166 10.674C178.209 10.7173 178.231 10.7607 178.231 10.804C178.231 10.8387 178.209 10.8777 178.166 10.921L177.178 12.039C177.143 12.0823 177.104 12.104 177.061 12.104C177.017 12.104 176.974 12.0823 176.931 12.039C176.549 11.5797 176.103 11.1593 175.592 10.778C175.54 11.038 175.453 11.2633 175.332 11.454C175.219 11.6447 175.072 11.8223 174.89 11.987C174.638 12.2123 174.322 12.3857 173.941 12.507C173.568 12.6283 173.178 12.689 172.771 12.689ZM177.672 5.747C177.628 5.747 177.589 5.72967 177.555 5.695C177.121 5.39167 176.632 5.162 176.086 5.006C175.548 4.84133 174.942 4.71133 174.266 4.616C174.127 4.59867 174.079 4.52933 174.123 4.408L174.422 3.251C174.448 3.12967 174.521 3.07767 174.643 3.095C174.981 3.12967 175.323 3.17733 175.67 3.238C176.016 3.29 176.354 3.35933 176.684 3.446C177.022 3.53267 177.347 3.63667 177.659 3.758C177.971 3.87933 178.257 4.018 178.517 4.174C178.577 4.20867 178.608 4.25633 178.608 4.317C178.608 4.343 178.599 4.382 178.582 4.434L177.815 5.656C177.771 5.71667 177.724 5.747 177.672 5.747ZM184.692 5.552C184.622 5.552 184.57 5.52167 184.536 5.461L184.081 4.655C184.055 4.68967 184.011 4.707 183.951 4.707H180.012C179.89 4.707 179.83 4.64633 179.83 4.525V3.524C179.83 3.40267 179.89 3.342 180.012 3.342H183.951C184.072 3.342 184.133 3.40267 184.133 3.524V3.966C184.462 3.81867 184.77 3.64533 185.056 3.446C185.35 3.24667 185.619 3.03433 185.862 2.809C186.104 2.575 186.317 2.33233 186.499 2.081C186.689 1.82967 186.845 1.58267 186.967 1.34C187.019 1.25333 187.092 1.21 187.188 1.21H188.501C188.596 1.21 188.67 1.249 188.722 1.327C189.051 1.83833 189.48 2.31933 190.009 2.77C190.537 3.22067 191.127 3.589 191.777 3.875C191.889 3.927 191.92 4.00933 191.868 4.122L191.322 5.396C191.27 5.50867 191.192 5.539 191.088 5.487C190.715 5.29633 190.342 5.05367 189.97 4.759V5.344C189.97 5.46533 189.909 5.526 189.788 5.526H186.083C185.961 5.526 185.901 5.46533 185.901 5.344V4.798C185.537 5.09267 185.164 5.33967 184.783 5.539C184.765 5.54767 184.735 5.552 184.692 5.552ZM180.337 12.715C180.215 12.715 180.155 12.6543 180.155 12.533V9.14C180.155 9.01867 180.215 8.958 180.337 8.958H183.756C183.877 8.958 183.938 9.01867 183.938 9.14V12.533C183.938 12.6543 183.877 12.715 183.756 12.715H180.337ZM182.664 11.48V10.115H181.455V11.48H182.664ZM180.467 8.334C180.345 8.334 180.285 8.27333 180.285 8.152V7.32C180.285 7.19867 180.345 7.138 180.467 7.138H183.652C183.773 7.138 183.834 7.19867 183.834 7.32V8.152C183.834 8.27333 183.773 8.334 183.652 8.334H180.467ZM180.467 6.527C180.345 6.527 180.285 6.46633 180.285 6.345V5.5C180.285 5.37867 180.345 5.318 180.467 5.318H183.652C183.773 5.318 183.834 5.37867 183.834 5.5V6.345C183.834 6.46633 183.773 6.527 183.652 6.527H180.467ZM186.564 9.062V7.541H185.862V9.062H186.564ZM184.783 12.975C184.661 12.975 184.601 12.9143 184.601 12.793V6.306C184.601 6.18467 184.661 6.124 184.783 6.124H191.166C191.287 6.124 191.348 6.18467 191.348 6.306V11.181C191.348 11.493 191.326 11.7573 191.283 11.974C191.248 12.1907 191.179 12.3683 191.075 12.507C190.971 12.6457 190.828 12.7497 190.646 12.819C190.464 12.8883 190.23 12.9273 189.944 12.936H189.931C189.827 12.936 189.762 12.8883 189.736 12.793L189.424 11.766L189.411 11.701C189.411 11.623 189.467 11.5753 189.58 11.558C189.727 11.558 189.844 11.5277 189.931 11.467C190.017 11.4063 190.061 11.2893 190.061 11.116V10.258H189.32V12.429C189.32 12.5503 189.259 12.611 189.138 12.611H188.462C188.34 12.611 188.28 12.5503 188.28 12.429V10.258H187.604V12.468C187.604 12.5893 187.543 12.65 187.422 12.65H186.746C186.624 12.65 186.564 12.5893 186.564 12.468V10.258H185.862V12.793C185.862 12.9143 185.801 12.975 185.68 12.975H184.783ZM188.28 9.062V7.541H187.604V9.062H188.28ZM180.467 2.731C180.345 2.731 180.285 2.67033 180.285 2.549V1.652C180.285 1.53067 180.345 1.47 180.467 1.47H183.665C183.786 1.47 183.847 1.53067 183.847 1.652V2.549C183.847 2.67033 183.786 2.731 183.665 2.731H180.467ZM190.061 9.062V7.541H189.32V9.062H190.061ZM189.333 4.226C189.029 3.94867 188.752 3.667 188.501 3.381C188.258 3.095 188.05 2.822 187.877 2.562C187.738 2.822 187.552 3.095 187.318 3.381C187.092 3.667 186.841 3.94867 186.564 4.226H189.333ZM193.649 12.949C193.579 12.949 193.523 12.9057 193.48 12.819L192.817 11.454C192.799 11.402 192.791 11.3717 192.791 11.363C192.791 11.2937 192.838 11.2503 192.934 11.233C194.693 10.895 196.205 10.2797 197.471 9.387C196.855 8.711 196.331 7.97 195.898 7.164C195.464 6.358 195.109 5.487 194.832 4.551H193.272C193.15 4.551 193.09 4.49033 193.09 4.369V3.082C193.09 2.96067 193.15 2.9 193.272 2.9H197.809V1.301C197.809 1.17967 197.869 1.119 197.991 1.119H199.564C199.685 1.119 199.746 1.17967 199.746 1.301V2.9H204.257C204.378 2.9 204.439 2.96067 204.439 3.082V4.369C204.439 4.49033 204.378 4.551 204.257 4.551H202.723C202.471 5.513 202.129 6.397 201.696 7.203C201.271 8.00033 200.76 8.72833 200.162 9.387C201.392 10.219 202.879 10.8127 204.621 11.168C204.751 11.194 204.79 11.2677 204.738 11.389L204.049 12.793C203.997 12.897 203.919 12.936 203.815 12.91C202.801 12.676 201.882 12.3683 201.059 11.987C200.235 11.6057 199.49 11.155 198.823 10.635C197.427 11.727 195.724 12.494 193.714 12.936C193.696 12.936 193.683 12.936 193.675 12.936C193.675 12.9447 193.666 12.949 193.649 12.949ZM198.797 8.243C199.767 7.22033 200.448 5.98967 200.838 4.551H196.691C196.907 5.28767 197.189 5.96367 197.536 6.579C197.891 7.18567 198.311 7.74033 198.797 8.243ZM209.47 8.321C209.409 8.321 209.361 8.29067 209.327 8.23L208.612 7.164C208.586 7.12067 208.573 7.086 208.573 7.06C208.573 6.99933 208.612 6.956 208.69 6.93C209.201 6.73933 209.66 6.50967 210.068 6.241C210.484 5.97233 210.83 5.682 211.108 5.37H209.119C208.997 5.37 208.937 5.30933 208.937 5.188V4.148C208.937 4.02667 208.997 3.966 209.119 3.966H211.901C212.013 3.64533 212.1 3.33767 212.161 3.043C211.753 3.06033 211.359 3.07767 210.978 3.095C210.605 3.10367 210.245 3.108 209.899 3.108C209.786 3.108 209.717 3.056 209.691 2.952L209.366 1.886C209.357 1.86867 209.353 1.847 209.353 1.821C209.353 1.73433 209.409 1.691 209.522 1.691H210.185C210.757 1.691 211.333 1.68233 211.914 1.665C212.494 1.639 213.053 1.60867 213.591 1.574C214.137 1.53067 214.648 1.47867 215.125 1.418C215.61 1.35733 216.043 1.288 216.425 1.21C216.442 1.21 216.451 1.21 216.451 1.21C216.459 1.20133 216.472 1.197 216.49 1.197C216.568 1.197 216.62 1.24033 216.646 1.327L217.036 2.341C217.044 2.367 217.049 2.39733 217.049 2.432C217.049 2.51 217.014 2.55333 216.945 2.562C216.529 2.63133 216.056 2.70067 215.528 2.77C215.008 2.83067 214.462 2.88267 213.89 2.926C213.846 3.09933 213.794 3.27267 213.734 3.446C213.682 3.61933 213.625 3.79267 213.565 3.966H217.374C217.495 3.966 217.556 4.02667 217.556 4.148V5.188C217.556 5.30933 217.495 5.37 217.374 5.37H215.32C215.597 5.656 215.939 5.916 216.347 6.15C216.754 6.384 217.196 6.57033 217.673 6.709C217.794 6.75233 217.829 6.83033 217.777 6.943L217.179 8.126C217.127 8.23 217.049 8.26033 216.945 8.217C216.269 7.93967 215.632 7.554 215.034 7.06C214.444 6.55733 213.968 5.994 213.604 5.37H212.811C212.516 5.89 212.096 6.41 211.55 6.93C211.012 7.45 210.354 7.905 209.574 8.295C209.522 8.31233 209.487 8.321 209.47 8.321ZM205.986 12.039C205.873 11.987 205.843 11.9047 205.895 11.792C206.224 11.1767 206.51 10.5093 206.753 9.79C207.004 9.07067 207.216 8.37733 207.39 7.71C207.416 7.58 207.494 7.54533 207.624 7.606L208.729 8.113C208.824 8.15633 208.859 8.23867 208.833 8.36C208.755 8.70667 208.664 9.06633 208.56 9.439C208.456 9.803 208.343 10.167 208.222 10.531C208.109 10.8863 207.988 11.233 207.858 11.571C207.736 11.909 207.606 12.221 207.468 12.507C207.407 12.6197 207.325 12.65 207.221 12.598L205.986 12.039ZM209.769 12.143C209.734 12.143 209.695 12.13 209.652 12.104L208.612 11.506C208.551 11.4713 208.521 11.428 208.521 11.376C208.521 11.324 208.538 11.2807 208.573 11.246C208.893 10.83 209.175 10.3663 209.418 9.855C209.669 9.335 209.86 8.841 209.99 8.373C210.016 8.243 210.094 8.19967 210.224 8.243L211.264 8.568C211.368 8.60267 211.407 8.68067 211.381 8.802C211.311 9.062 211.22 9.34367 211.108 9.647C211.004 9.94167 210.887 10.2363 210.757 10.531C210.627 10.8257 210.488 11.1073 210.341 11.376C210.193 11.636 210.046 11.8657 209.899 12.065C209.864 12.117 209.821 12.143 209.769 12.143ZM208.001 6.943C207.957 6.943 207.918 6.92567 207.884 6.891C207.615 6.63967 207.307 6.40567 206.961 6.189C206.623 5.97233 206.293 5.786 205.973 5.63C205.903 5.604 205.869 5.56067 205.869 5.5C205.869 5.45667 205.882 5.41767 205.908 5.383L206.597 4.356C206.666 4.26067 206.748 4.23467 206.844 4.278C207.147 4.41667 207.472 4.59433 207.819 4.811C208.174 5.02767 208.499 5.266 208.794 5.526C208.837 5.56933 208.859 5.61267 208.859 5.656C208.859 5.69067 208.846 5.72967 208.82 5.773L208.131 6.852C208.096 6.91267 208.053 6.943 208.001 6.943ZM211.173 12.962C211.06 12.962 210.986 12.9143 210.952 12.819L210.497 11.649C210.488 11.6317 210.484 11.6057 210.484 11.571C210.484 11.493 210.544 11.454 210.666 11.454C210.96 11.4627 211.19 11.454 211.355 11.428C211.519 11.402 211.641 11.363 211.719 11.311C211.797 11.2503 211.84 11.181 211.849 11.103C211.866 11.0163 211.875 10.9167 211.875 10.804V6.917C211.875 6.79567 211.935 6.735 212.057 6.735H213.24C213.361 6.735 213.422 6.79567 213.422 6.917V11.051C213.422 11.415 213.387 11.7183 213.318 11.961C213.248 12.2037 213.127 12.3987 212.954 12.546C212.789 12.6933 212.559 12.7973 212.265 12.858C211.979 12.9187 211.615 12.9533 211.173 12.962ZM214.397 12.065C214.319 12.065 214.271 12.013 214.254 11.909C214.193 11.363 214.111 10.8083 214.007 10.245C213.911 9.673 213.781 9.12267 213.617 8.594C213.608 8.57667 213.604 8.55067 213.604 8.516C213.604 8.44667 213.651 8.399 213.747 8.373L214.631 8.204L214.683 8.191C214.769 8.191 214.826 8.23867 214.852 8.334C215.025 8.828 215.181 9.35233 215.32 9.907C215.467 10.4617 215.588 11.012 215.684 11.558V11.597C215.684 11.6923 215.636 11.753 215.541 11.779L214.462 12.052C214.444 12.052 214.431 12.052 214.423 12.052C214.423 12.0607 214.414 12.065 214.397 12.065ZM208.235 3.94C208.2 3.94 208.161 3.91833 208.118 3.875C207.858 3.60633 207.559 3.36367 207.221 3.147C206.891 2.92167 206.562 2.73533 206.233 2.588C206.163 2.562 206.129 2.51867 206.129 2.458C206.129 2.41467 206.142 2.37567 206.168 2.341L206.883 1.379C206.943 1.29233 207.026 1.27067 207.13 1.314C207.45 1.45267 207.78 1.626 208.118 1.834C208.456 2.03333 208.772 2.26733 209.067 2.536C209.11 2.57933 209.132 2.62267 209.132 2.666C209.132 2.70067 209.119 2.73967 209.093 2.783L208.378 3.849C208.334 3.90967 208.287 3.94 208.235 3.94ZM216.568 12.026C216.498 12.026 216.451 11.9827 216.425 11.896C216.303 11.324 216.152 10.7563 215.97 10.193C215.788 9.621 215.58 9.07933 215.346 8.568C215.328 8.53333 215.32 8.50733 215.32 8.49C215.32 8.412 215.367 8.36 215.463 8.334L216.373 8.074C216.39 8.06533 216.416 8.061 216.451 8.061C216.52 8.061 216.572 8.09567 216.607 8.165C216.858 8.64167 217.092 9.166 217.309 9.738C217.525 10.31 217.707 10.8733 217.855 11.428C217.855 11.4453 217.855 11.4583 217.855 11.467C217.863 11.467 217.868 11.4757 217.868 11.493C217.868 11.5797 217.824 11.636 217.738 11.662L216.646 12.013C216.628 12.0217 216.602 12.026 216.568 12.026ZM219.493 12.988C219.371 12.988 219.311 12.9273 219.311 12.806V4.642C219.311 4.52067 219.371 4.46 219.493 4.46H221.638V1.288C221.638 1.16667 221.698 1.106 221.82 1.106H223.094C223.215 1.106 223.276 1.16667 223.276 1.288V4.46H225.421C225.542 4.46 225.603 4.52067 225.603 4.642V11.155C225.603 11.4497 225.572 11.714 225.512 11.948C225.451 12.1733 225.33 12.3597 225.148 12.507C224.974 12.6543 224.727 12.7627 224.407 12.832C224.086 12.91 223.666 12.9403 223.146 12.923C223.042 12.923 222.972 12.8753 222.938 12.78L222.548 11.649C222.539 11.6317 222.535 11.61 222.535 11.584C222.535 11.4713 222.595 11.4237 222.717 11.441C222.795 11.4497 222.864 11.454 222.925 11.454C222.994 11.454 223.063 11.454 223.133 11.454C223.332 11.454 223.492 11.441 223.614 11.415C223.735 11.389 223.826 11.3543 223.887 11.311C223.956 11.259 223.999 11.1983 224.017 11.129C224.034 11.051 224.043 10.96 224.043 10.856V10.349H220.871V12.806C220.871 12.9273 220.81 12.988 220.689 12.988H219.493ZM224.043 9.088V8.126H220.871V9.088H224.043ZM224.043 6.878V5.877H220.871V6.878H224.043ZM220.143 4.226C220.073 4.226 220.026 4.187 220 4.109C219.878 3.77967 219.722 3.446 219.532 3.108C219.341 2.76133 219.124 2.44067 218.882 2.146C218.847 2.094 218.83 2.055 218.83 2.029C218.83 1.96833 218.864 1.925 218.934 1.899L219.948 1.418C219.974 1.40067 220.008 1.392 220.052 1.392C220.112 1.392 220.16 1.418 220.195 1.47C220.446 1.77333 220.671 2.09833 220.871 2.445C221.07 2.79167 221.235 3.134 221.365 3.472C221.373 3.48933 221.378 3.51533 221.378 3.55C221.378 3.61067 221.339 3.66267 221.261 3.706L220.234 4.2C220.182 4.21733 220.151 4.226 220.143 4.226ZM226.565 9.946C226.443 9.946 226.383 9.88533 226.383 9.764V2.146C226.383 2.02467 226.443 1.964 226.565 1.964H227.722C227.843 1.964 227.904 2.02467 227.904 2.146V9.764C227.904 9.88533 227.843 9.946 227.722 9.946H226.565ZM227.527 12.975C227.423 12.975 227.353 12.9273 227.319 12.832L226.812 11.428C226.803 11.4107 226.799 11.3847 226.799 11.35C226.799 11.246 226.859 11.2027 226.981 11.22C227.085 11.2287 227.18 11.233 227.267 11.233C227.362 11.233 227.449 11.233 227.527 11.233C227.778 11.233 227.977 11.22 228.125 11.194C228.281 11.1593 228.398 11.1117 228.476 11.051C228.562 10.9817 228.619 10.8993 228.645 10.804C228.671 10.7087 228.684 10.596 228.684 10.466V1.288C228.684 1.16667 228.744 1.106 228.866 1.106H230.114C230.235 1.106 230.296 1.16667 230.296 1.288V10.934C230.296 11.35 230.261 11.6923 230.192 11.961C230.131 12.2297 230.001 12.442 229.802 12.598C229.611 12.754 229.334 12.858 228.97 12.91C228.606 12.9707 228.125 12.9923 227.527 12.975ZM223.575 3.771C223.505 3.745 223.471 3.70167 223.471 3.641C223.471 3.59767 223.484 3.55867 223.51 3.524C223.744 3.22933 223.952 2.90433 224.134 2.549C224.316 2.185 224.454 1.82533 224.55 1.47C224.584 1.35733 224.658 1.31833 224.771 1.353L225.824 1.678C225.936 1.71267 225.971 1.79933 225.928 1.938C225.806 2.34533 225.646 2.75267 225.447 3.16C225.256 3.55867 225.057 3.89667 224.849 4.174C224.788 4.26067 224.706 4.28233 224.602 4.239L223.575 3.771ZM231.726 12.481C231.656 12.481 231.604 12.4637 231.57 12.429C231.544 12.3943 231.548 12.3423 231.583 12.273L235.704 2.289C235.738 2.19367 235.808 2.146 235.912 2.146H237.225C237.329 2.146 237.398 2.19367 237.433 2.289L241.567 12.273C241.575 12.2903 241.58 12.3163 241.58 12.351C241.58 12.4377 241.528 12.481 241.424 12.481H239.643C239.539 12.481 239.469 12.4333 239.435 12.338L238.707 10.414H234.417L233.676 12.338C233.641 12.4333 233.572 12.481 233.468 12.481H231.726ZM238.031 8.646L236.549 4.733L235.067 8.646H238.031ZM243.184 12.481C243.063 12.481 243.002 12.4203 243.002 12.299V2.328C243.002 2.20667 243.063 2.146 243.184 2.146H244.718C244.839 2.146 244.9 2.20667 244.9 2.328V12.299C244.9 12.4203 244.839 12.481 244.718 12.481H243.184Z" fill="#393939"/>
</svg>
