<svg width="244" height="14" viewBox="0 0 244 14" fill="none" xmlns="http://www.w3.org/2000/svg">
<path d="M1.326 2.12C1.326 2.016 1.378 1.964 1.482 1.964H5.98V1.223C5.98 1.119 6.032 1.067 6.136 1.067H6.851C6.955 1.067 7.007 1.119 7.007 1.223V1.964H11.518C11.622 1.964 11.674 2.016 11.674 2.12V2.575C11.674 2.679 11.622 2.731 11.518 2.731H9.724C9.60267 3.18167 9.45967 3.60633 9.295 4.005H12.038C12.142 4.005 12.194 4.057 12.194 4.161V4.629C12.194 4.733 12.142 4.785 12.038 4.785H0.936C0.832 4.785 0.78 4.733 0.78 4.629V4.161C0.78 4.057 0.832 4.005 0.936 4.005H3.731C3.627 3.589 3.484 3.16433 3.302 2.731H1.482C1.378 2.731 1.326 2.679 1.326 2.575V2.12ZM8.359 4.005C8.53233 3.589 8.671 3.16433 8.775 2.731H4.251C4.459 3.251 4.60633 3.67567 4.693 4.005H8.359ZM2.015 5.669C2.015 5.62567 2.028 5.591 2.054 5.565C2.08867 5.53033 2.12767 5.513 2.171 5.513H10.855C10.959 5.513 11.011 5.565 11.011 5.669V9.088C11.011 9.192 10.959 9.244 10.855 9.244H2.171C2.067 9.244 2.015 9.192 2.015 9.088V5.669ZM10.166 6.267H2.86V7.034H10.166V6.267ZM10.166 7.71H2.86V8.49H10.166V7.71ZM7.501 11.116C7.45767 11.1593 7.41867 11.181 7.384 11.181C7.34933 11.181 7.31467 11.1637 7.28 11.129C7.08067 10.9557 6.838 10.7823 6.552 10.609C6.27467 10.427 6.006 10.2797 5.746 10.167C5.65067 10.1063 5.63333 10.0327 5.694 9.946L5.941 9.595C5.98433 9.52567 6.05367 9.504 6.149 9.53C6.435 9.64267 6.721 9.78567 7.007 9.959C7.30167 10.1237 7.55733 10.297 7.774 10.479C7.81733 10.5223 7.839 10.5613 7.839 10.596C7.839 10.622 7.826 10.6567 7.8 10.7L7.501 11.116ZM11.661 12.117C11.6437 12.1257 11.6177 12.13 11.583 12.13C11.531 12.13 11.4833 12.104 11.44 12.052C11.0067 11.2113 10.53 10.57 10.01 10.128C9.96667 10.0847 9.945 10.05 9.945 10.024C9.945 9.972 9.97533 9.933 10.036 9.907L10.504 9.673C10.556 9.65567 10.5863 9.647 10.595 9.647C10.6383 9.647 10.6817 9.66867 10.725 9.712C11.323 10.2753 11.83 10.9167 12.246 11.636C12.2633 11.662 12.272 11.6923 12.272 11.727C12.272 11.779 12.246 11.818 12.194 11.844L11.661 12.117ZM0.819 12.208C0.749667 12.182 0.715 12.143 0.715 12.091C0.715 12.0737 0.732333 12.039 0.767 11.987C1.29567 11.4063 1.68567 10.726 1.937 9.946C1.963 9.85067 2.028 9.816 2.132 9.842L2.691 9.998C2.795 10.024 2.834 10.0847 2.808 10.18C2.68667 10.57 2.522 10.9643 2.314 11.363C2.106 11.7617 1.88067 12.1083 1.638 12.403C1.586 12.4637 1.51667 12.481 1.43 12.455L0.819 12.208ZM5.005 12.598C4.511 12.5807 4.15133 12.455 3.926 12.221C3.70933 11.9957 3.601 11.636 3.601 11.142V9.998C3.601 9.95467 3.614 9.92 3.64 9.894C3.67467 9.85933 3.71367 9.842 3.757 9.842H4.342C4.38533 9.842 4.42 9.85933 4.446 9.894C4.48067 9.92 4.498 9.95467 4.498 9.998V10.921C4.498 11.2503 4.54133 11.4757 4.628 11.597C4.72333 11.7097 4.92267 11.7747 5.226 11.792C5.616 11.818 6.07967 11.831 6.617 11.831C7.15433 11.831 7.644 11.818 8.086 11.792C8.346 11.7833 8.54533 11.7487 8.684 11.688C8.83133 11.6187 8.94833 11.506 9.035 11.35C9.12167 11.1853 9.191 10.9427 9.243 10.622C9.25167 10.5613 9.27333 10.5223 9.308 10.505C9.35133 10.4877 9.39467 10.492 9.438 10.518L9.945 10.778C10.023 10.8213 10.0577 10.8863 10.049 10.973C9.971 11.415 9.854 11.7487 9.698 11.974C9.55067 12.1993 9.35133 12.3553 9.1 12.442C8.85733 12.5287 8.52367 12.5807 8.099 12.598C7.475 12.6153 6.95067 12.624 6.526 12.624C6.10133 12.624 5.59433 12.6153 5.005 12.598ZM17.394 11.428C17.3767 11.402 17.368 11.3673 17.368 11.324C17.368 11.2807 17.3897 11.2417 17.433 11.207C18.1177 10.7043 18.7373 10.0587 19.292 9.27C19.8553 8.48133 20.3147 7.67967 20.67 6.865H18.083C17.979 6.865 17.927 6.813 17.927 6.709V6.124C17.927 6.02 17.979 5.968 18.083 5.968H21.008V3.966H18.408C18.304 3.966 18.252 3.914 18.252 3.81V3.225C18.252 3.121 18.304 3.069 18.408 3.069H21.008V1.262C21.008 1.158 21.06 1.106 21.164 1.106H21.775C21.879 1.106 21.931 1.158 21.931 1.262V3.069H24.661C24.765 3.069 24.817 3.121 24.817 3.225V3.81C24.817 3.914 24.765 3.966 24.661 3.966H21.931V5.968H25.038C25.142 5.968 25.194 6.02 25.194 6.124V6.709C25.194 6.813 25.142 6.865 25.038 6.865H22.256C22.6287 7.66233 23.0837 8.43367 23.621 9.179C24.167 9.92433 24.7347 10.5483 25.324 11.051C25.3673 11.077 25.389 11.1117 25.389 11.155C25.389 11.181 25.376 11.2157 25.35 11.259L24.921 11.857C24.8777 11.9003 24.8387 11.922 24.804 11.922C24.7693 11.922 24.7347 11.9047 24.7 11.87C24.154 11.3413 23.6297 10.7043 23.127 9.959C22.6243 9.21367 22.217 8.48133 21.905 7.762L21.944 12.832C21.944 12.936 21.892 12.988 21.788 12.988H21.151C21.047 12.988 20.995 12.936 20.995 12.832L21.034 7.788C20.7307 8.55067 20.319 9.31333 19.799 10.076C19.2877 10.8387 18.707 11.4843 18.057 12.013C18.0223 12.0477 17.9833 12.065 17.94 12.065C17.8967 12.065 17.862 12.039 17.836 11.987L17.394 11.428ZM14.17 11.103C14.066 11.103 14.014 11.051 14.014 10.947V2.133C14.014 2.029 14.066 1.977 14.17 1.977H17.238C17.342 1.977 17.394 2.029 17.394 2.133V10.947C17.394 11.051 17.342 11.103 17.238 11.103H14.17ZM16.536 10.18V2.887H14.872V10.18H16.536ZM27.651 3.303C27.651 3.199 27.703 3.147 27.807 3.147H30.797C31.031 2.51433 31.2043 1.99867 31.317 1.6C31.343 1.50467 31.408 1.46567 31.512 1.483L32.227 1.639C32.331 1.665 32.3657 1.73 32.331 1.834C32.1403 2.38867 31.9757 2.82633 31.837 3.147H36.309C36.413 3.147 36.465 3.199 36.465 3.303V3.849C36.465 3.953 36.413 4.005 36.309 4.005C35.0523 4.01367 33.4447 4.018 31.486 4.018C31.1307 4.746 30.7537 5.435 30.355 6.085C30.6323 5.89433 30.9313 5.747 31.252 5.643C31.5813 5.539 31.9063 5.487 32.227 5.487C32.6777 5.487 33.0893 5.59533 33.462 5.812C33.8347 6.02 34.125 6.345 34.333 6.787C34.6017 6.683 35.2343 6.45333 36.231 6.098C36.3177 6.06333 36.5863 5.968 37.037 5.812L37.102 5.799C37.1627 5.799 37.206 5.83367 37.232 5.903L37.492 6.527C37.5007 6.54433 37.505 6.566 37.505 6.592C37.505 6.66133 37.466 6.70467 37.388 6.722C36.114 7.10333 35.1867 7.398 34.606 7.606C34.658 7.892 34.684 8.20833 34.684 8.555C34.684 8.945 34.645 9.374 34.567 9.842C34.5583 9.92867 34.502 9.98067 34.398 9.998H33.735C33.683 9.998 33.644 9.985 33.618 9.959C33.6007 9.92433 33.5963 9.881 33.605 9.829C33.6917 9.36967 33.735 8.945 33.735 8.555C33.735 8.32967 33.722 8.126 33.696 7.944C32.4567 8.464 31.642 8.945 31.252 9.387C30.9487 9.70767 30.797 10.011 30.797 10.297C30.797 10.531 30.888 10.739 31.07 10.921C31.252 11.0943 31.5163 11.2243 31.863 11.311C32.383 11.441 32.9983 11.506 33.709 11.506C34.5843 11.506 35.555 11.4107 36.621 11.22H36.673C36.7163 11.22 36.7467 11.233 36.764 11.259C36.79 11.285 36.7987 11.3197 36.79 11.363L36.777 12.026C36.777 12.1127 36.7293 12.1647 36.634 12.182C35.672 12.3293 34.7447 12.403 33.852 12.403C33.02 12.403 32.2833 12.3337 31.642 12.195C31.07 12.0737 30.628 11.8527 30.316 11.532C30.004 11.2113 29.848 10.8387 29.848 10.414C29.848 10.1107 29.9303 9.80733 30.095 9.504C30.2597 9.192 30.5023 8.90167 30.823 8.633C31.1523 8.347 31.538 8.087 31.98 7.853C32.422 7.61033 32.916 7.372 33.462 7.138C33.3147 6.83467 33.111 6.605 32.851 6.449C32.5997 6.293 32.3137 6.215 31.993 6.215C31.5683 6.215 31.1177 6.345 30.641 6.605C30.173 6.865 29.744 7.229 29.354 7.697C29.354 7.697 29.094 8.009 28.574 8.633L28.184 9.101C28.1407 9.14433 28.1017 9.166 28.067 9.166C28.041 9.166 28.0063 9.153 27.963 9.127L27.43 8.711C27.3867 8.66767 27.365 8.62867 27.365 8.594C27.365 8.57667 27.3823 8.542 27.417 8.49C28.0497 7.84867 28.626 7.14667 29.146 6.384C29.666 5.61267 30.1037 4.824 30.459 4.018H27.807C27.703 4.018 27.651 3.966 27.651 3.862V3.303ZM44.291 1.717C44.291 1.67367 44.304 1.639 44.33 1.613C44.3647 1.57833 44.4037 1.561 44.447 1.561H50.778C50.8213 1.561 50.856 1.57833 50.882 1.613C50.9167 1.639 50.934 1.67367 50.934 1.717V7.411C50.934 7.45433 50.9167 7.49333 50.882 7.528C50.856 7.554 50.8213 7.567 50.778 7.567H48.074V9.114H50.817C50.921 9.114 50.973 9.166 50.973 9.27V9.79C50.973 9.894 50.921 9.946 50.817 9.946H48.074V11.688H51.337C51.441 11.688 51.493 11.74 51.493 11.844V12.39C51.493 12.4333 51.4757 12.468 51.441 12.494C51.415 12.5287 51.3803 12.546 51.337 12.546H43.823C43.719 12.546 43.667 12.494 43.667 12.39V11.844C43.667 11.74 43.719 11.688 43.823 11.688H47.125V9.946H44.382C44.278 9.946 44.226 9.894 44.226 9.79V9.27C44.226 9.22667 44.239 9.192 44.265 9.166C44.2997 9.13133 44.3387 9.114 44.382 9.114H47.125V7.567H44.447C44.4037 7.567 44.3647 7.554 44.33 7.528C44.304 7.49333 44.291 7.45433 44.291 7.411V1.717ZM39.728 2.042C39.728 1.938 39.78 1.886 39.884 1.886H43.628C43.732 1.886 43.784 1.938 43.784 2.042V2.575C43.784 2.679 43.732 2.731 43.628 2.731H42.237V5.838H43.498C43.602 5.838 43.654 5.89 43.654 5.994V6.514C43.654 6.618 43.602 6.67 43.498 6.67H42.237V10.037C42.783 9.86367 43.2597 9.69467 43.667 9.53C43.7017 9.51267 43.7277 9.504 43.745 9.504C43.8143 9.504 43.849 9.55167 43.849 9.647V10.258C43.849 10.3447 43.8057 10.4053 43.719 10.44C42.5057 10.8993 41.2273 11.298 39.884 11.636L39.819 11.649C39.7583 11.649 39.715 11.61 39.689 11.532L39.546 10.921L39.533 10.869C39.533 10.7997 39.5763 10.7563 39.663 10.739C40.2697 10.6003 40.82 10.4573 41.314 10.31V6.67H40.014C39.91 6.67 39.858 6.618 39.858 6.514V5.994C39.858 5.89 39.91 5.838 40.014 5.838H41.314V2.731H39.884C39.78 2.731 39.728 2.679 39.728 2.575V2.042ZM47.151 2.367H45.201V4.161H47.151V2.367ZM50.011 2.367H48.048V4.161H50.011V2.367ZM47.151 4.915H45.201V6.787H47.151V4.915ZM50.011 4.915H48.048V6.787H50.011V4.915ZM52.585 12.611C52.4983 12.5677 52.4767 12.4983 52.52 12.403C52.8147 11.831 53.014 11.1723 53.118 10.427C53.2307 9.68167 53.287 8.776 53.287 7.71V4.694L52.91 5.058C52.8753 5.084 52.845 5.097 52.819 5.097C52.7843 5.097 52.754 5.071 52.728 5.019L52.468 4.473C52.4593 4.45567 52.455 4.42967 52.455 4.395C52.455 4.317 52.481 4.26067 52.533 4.226C52.9577 3.862 53.352 3.41133 53.716 2.874C54.0887 2.328 54.379 1.795 54.587 1.275C54.6303 1.171 54.6997 1.12767 54.795 1.145L55.328 1.223C55.4233 1.24033 55.458 1.29667 55.432 1.392C55.354 1.6 55.2543 1.82967 55.133 2.081H57.408C57.4513 2.081 57.486 2.09833 57.512 2.133C57.5467 2.159 57.564 2.19367 57.564 2.237V2.731C57.564 2.95633 57.2693 3.44167 56.68 4.187H58.071C58.175 4.187 58.227 4.239 58.227 4.343V11.376C58.227 11.8527 58.1403 12.1993 57.967 12.416C57.7937 12.6413 57.564 12.78 57.278 12.832C56.992 12.8927 56.6063 12.9187 56.121 12.91C56.0343 12.91 55.965 12.8623 55.913 12.767L55.718 12.221L55.705 12.169C55.705 12.1083 55.744 12.0823 55.822 12.091L56.264 12.104C56.6193 12.104 56.901 12.0477 57.109 11.935C57.3257 11.8223 57.4297 11.597 57.421 11.259L57.408 9.79H54.08C54.0453 10.3273 53.9673 10.8603 53.846 11.389C53.7247 11.909 53.5643 12.3813 53.365 12.806C53.3217 12.9013 53.2523 12.9273 53.157 12.884L52.585 12.611ZM58.643 5.383C58.617 5.357 58.604 5.331 58.604 5.305C58.604 5.27033 58.6257 5.24 58.669 5.214C59.2497 4.89333 59.6873 4.512 59.982 4.07C60.2767 3.628 60.476 3.09067 60.58 2.458H58.955C58.9117 2.458 58.8727 2.445 58.838 2.419C58.812 2.38433 58.799 2.34533 58.799 2.302V1.834C58.799 1.79067 58.812 1.756 58.838 1.73C58.8727 1.69533 58.9117 1.678 58.955 1.678H63.791C63.8343 1.678 63.869 1.69533 63.895 1.73C63.9297 1.756 63.947 1.79067 63.947 1.834C63.947 2.354 63.9427 2.757 63.934 3.043C63.934 3.71033 63.8907 4.22167 63.804 4.577C63.7173 4.93233 63.518 5.20533 63.206 5.396C62.9027 5.578 62.426 5.669 61.776 5.669C61.6807 5.669 61.6113 5.617 61.568 5.513L61.399 5.019C61.3903 5.00167 61.386 4.98 61.386 4.954C61.386 4.902 61.4207 4.876 61.49 4.876C61.9493 4.876 62.2873 4.84567 62.504 4.785C62.7207 4.71567 62.8723 4.577 62.959 4.369C63.0457 4.161 63.089 3.836 63.089 3.394V2.458H61.425C61.3123 3.24667 61.1 3.92267 60.788 4.486C60.476 5.04067 60.008 5.5 59.384 5.864C59.3493 5.88133 59.319 5.89 59.293 5.89C59.2323 5.89 59.1803 5.86833 59.137 5.825L58.643 5.383ZM55.731 4.187C56.173 3.615 56.485 3.16867 56.667 2.848H54.73C54.4093 3.35933 54.0843 3.80567 53.755 4.187H55.731ZM55.419 4.954H54.106V6.631H55.419V4.954ZM57.434 4.954H56.147V6.631H57.434V4.954ZM58.63 9.153C58.5867 9.13567 58.5607 9.10967 58.552 9.075C58.5433 9.04033 58.552 9.00567 58.578 8.971C59.0373 8.30367 59.3667 7.424 59.566 6.332C59.5747 6.28867 59.5963 6.25833 59.631 6.241C59.6657 6.215 59.7047 6.20633 59.748 6.215L60.229 6.319C60.2723 6.32767 60.3027 6.34933 60.32 6.384C60.346 6.41867 60.3547 6.45767 60.346 6.501C60.3027 6.75233 60.242 7.02967 60.164 7.333H61.256V6.124C61.256 6.08067 61.269 6.046 61.295 6.02C61.3297 5.98533 61.3687 5.968 61.412 5.968H61.945C61.9883 5.968 62.023 5.98533 62.049 6.02C62.0837 6.046 62.101 6.08067 62.101 6.124V7.333H64.012C64.0553 7.333 64.09 7.35033 64.116 7.385C64.1507 7.411 64.168 7.44567 64.168 7.489V7.957C64.168 8.00033 64.1507 8.03933 64.116 8.074C64.09 8.1 64.0553 8.113 64.012 8.113H62.101V9.803H64.402C64.4453 9.803 64.48 9.82033 64.506 9.855C64.5407 9.881 64.558 9.91567 64.558 9.959V10.44C64.558 10.4833 64.5407 10.5223 64.506 10.557C64.48 10.583 64.4453 10.596 64.402 10.596H62.101V12.832C62.101 12.8753 62.0837 12.91 62.049 12.936C62.023 12.9707 61.9883 12.988 61.945 12.988H61.412C61.3687 12.988 61.3297 12.9707 61.295 12.936C61.269 12.91 61.256 12.8753 61.256 12.832V10.596H58.864C58.8207 10.596 58.7817 10.583 58.747 10.557C58.721 10.5223 58.708 10.4833 58.708 10.44V9.959C58.708 9.91567 58.721 9.881 58.747 9.855C58.7817 9.82033 58.8207 9.803 58.864 9.803H61.256V8.113H59.904C59.7393 8.57233 59.5573 8.958 59.358 9.27C59.2973 9.35667 59.2193 9.37833 59.124 9.335L58.63 9.153ZM55.419 7.346H54.106V9.023H55.419V7.346ZM57.434 7.346H56.147V9.023H57.434V7.346ZM66.079 3.29C66.079 3.186 66.131 3.134 66.235 3.134H71.903C71.8857 2.49267 71.877 2.02033 71.877 1.717C71.877 1.613 71.929 1.561 72.033 1.561H72.748C72.852 1.561 72.904 1.613 72.904 1.717C72.904 2.33233 72.9127 2.80467 72.93 3.134H76.778C76.882 3.134 76.934 3.186 76.934 3.29V3.914C76.934 4.018 76.882 4.07 76.778 4.07H72.904C72.904 5.28333 72.9083 6.19767 72.917 6.813C73.125 7.24633 73.229 7.736 73.229 8.282C73.229 8.386 73.2203 8.542 73.203 8.75C73.125 9.374 72.8997 9.95033 72.527 10.479C72.163 10.999 71.6603 11.441 71.019 11.805C70.3863 12.1603 69.6453 12.3987 68.796 12.52H68.757C68.6877 12.52 68.6357 12.4897 68.601 12.429L68.237 11.753C68.2197 11.7183 68.211 11.688 68.211 11.662C68.211 11.61 68.2543 11.5753 68.341 11.558C68.9737 11.4887 69.5803 11.3413 70.161 11.116C70.7417 10.8907 71.2313 10.57 71.63 10.154C72.0287 9.72933 72.2453 9.205 72.28 8.581C72.1673 8.96233 71.955 9.24833 71.643 9.439C71.3397 9.621 70.9757 9.712 70.551 9.712C70.2303 9.712 69.9227 9.66 69.628 9.556C69.342 9.44333 69.1037 9.27867 68.913 9.062C68.7397 8.87133 68.6097 8.65467 68.523 8.412C68.4363 8.16067 68.393 7.90067 68.393 7.632C68.393 7.32 68.4493 7.02533 68.562 6.748C68.6747 6.47067 68.8437 6.23233 69.069 6.033C69.2857 5.83367 69.5327 5.68633 69.81 5.591C70.0873 5.49567 70.369 5.448 70.655 5.448C71.0537 5.448 71.4133 5.53467 71.734 5.708C71.812 5.75133 71.8813 5.79467 71.942 5.838L71.929 4.07H66.235C66.131 4.07 66.079 4.018 66.079 3.914V3.29ZM72.007 7.151C71.929 6.891 71.7643 6.67867 71.513 6.514C71.2703 6.34933 71.006 6.267 70.72 6.267C70.5293 6.267 70.343 6.306 70.161 6.384C69.979 6.45333 69.823 6.56167 69.693 6.709C69.4763 6.95167 69.368 7.24633 69.368 7.593C69.368 7.92233 69.4633 8.19967 69.654 8.425C69.7667 8.57233 69.914 8.685 70.096 8.763C70.278 8.83233 70.473 8.867 70.681 8.867C70.8717 8.867 71.0537 8.83233 71.227 8.763C71.409 8.685 71.5563 8.581 71.669 8.451C71.8077 8.27767 71.8987 8.087 71.942 7.879C71.994 7.671 72.0157 7.42833 72.007 7.151ZM78.3485 8.451C78.3225 8.40767 78.3095 8.373 78.3095 8.347C78.3095 8.31233 78.3311 8.27333 78.3745 8.23C79.2151 7.658 80.9311 6.462 83.5225 4.642C84.4758 3.95733 85.1085 3.511 85.4205 3.303C84.5278 3.329 82.9808 3.35067 80.7795 3.368H80.2595H80.2335C80.1555 3.368 80.1165 3.32033 80.1165 3.225L80.1035 2.575C80.1035 2.471 80.1555 2.419 80.2595 2.419H86.9545C87.0585 2.419 87.1105 2.471 87.1105 2.575L87.1235 3.121C87.1235 3.199 87.0888 3.25967 87.0195 3.303C86.9241 3.37233 86.8288 3.43733 86.7335 3.498C86.6381 3.55867 86.5471 3.61933 86.4605 3.68C86.0705 3.94867 85.5331 4.32133 84.8485 4.798C84.1638 5.266 83.3881 5.79467 82.5215 6.384C83.2495 6.14133 83.9905 6.02 84.7445 6.02C85.3165 6.02 85.8495 6.09367 86.3435 6.241C86.8375 6.38833 87.2621 6.605 87.6175 6.891C87.9468 7.15967 88.1981 7.48033 88.3715 7.853C88.5535 8.217 88.6445 8.60267 88.6445 9.01C88.6445 9.54733 88.4885 10.0673 88.1765 10.57C87.8731 11.064 87.4268 11.4757 86.8375 11.805C86.4215 12.039 85.9361 12.2167 85.3815 12.338C84.8268 12.468 84.2678 12.533 83.7045 12.533C83.2105 12.533 82.7425 12.481 82.3005 12.377C81.8671 12.273 81.5031 12.1213 81.2085 11.922C80.9138 11.7227 80.6885 11.4843 80.5325 11.207C80.3765 10.9297 80.2985 10.648 80.2985 10.362C80.2985 10.1107 80.3548 9.868 80.4675 9.634C80.5888 9.4 80.7621 9.20067 80.9875 9.036C81.3515 8.76733 81.7545 8.633 82.1965 8.633C82.6038 8.633 82.9851 8.74567 83.3405 8.971C83.6958 9.19633 83.9818 9.53867 84.1985 9.998C84.4151 10.4487 84.5105 10.999 84.4845 11.649C85.1778 11.545 85.8321 11.3153 86.4475 10.96C86.8461 10.7173 87.1451 10.427 87.3445 10.089C87.5525 9.751 87.6565 9.40433 87.6565 9.049C87.6565 8.789 87.6001 8.53767 87.4875 8.295C87.3835 8.04367 87.2275 7.82267 87.0195 7.632C86.7508 7.38067 86.3781 7.18133 85.9015 7.034C85.4248 6.878 84.8918 6.8 84.3025 6.8C83.6525 6.8 82.9808 6.904 82.2875 7.112C81.6028 7.31133 80.9355 7.62767 80.2855 8.061L79.8305 8.412C79.8045 8.42933 79.5315 8.646 79.0115 9.062C78.9768 9.088 78.9421 9.101 78.9075 9.101C78.8555 9.101 78.8165 9.07933 78.7905 9.036L78.3485 8.451ZM83.6135 11.454C83.6135 11.038 83.5398 10.674 83.3925 10.362C83.2538 10.05 83.0675 9.81167 82.8335 9.647C82.6081 9.48233 82.3741 9.4 82.1315 9.4C81.9321 9.4 81.7458 9.46067 81.5725 9.582C81.3211 9.75533 81.1955 9.998 81.1955 10.31C81.1955 10.4747 81.2345 10.635 81.3125 10.791C81.3905 10.9383 81.5031 11.0683 81.6505 11.181C82.1185 11.5277 82.7685 11.701 83.6005 11.701L83.6135 11.454ZM91.2835 11.376C91.2661 11.3587 91.2575 11.3283 91.2575 11.285C91.2575 11.233 91.2921 11.194 91.3615 11.168C92.5401 10.752 93.6365 10.1323 94.6505 9.309C95.6645 8.477 96.5181 7.554 97.2115 6.54C97.9135 5.526 98.3945 4.538 98.6545 3.576L92.4535 3.589C92.3495 3.589 92.2975 3.537 92.2975 3.433V2.783C92.2975 2.679 92.3495 2.627 92.4535 2.627H99.7985C99.9025 2.627 99.9501 2.68333 99.9415 2.796C99.7595 3.63667 99.4735 4.46867 99.0835 5.292C98.7021 6.10667 98.2341 6.88233 97.6795 7.619C99.4908 8.867 100.916 10.1237 101.956 11.389C101.982 11.4237 101.995 11.4583 101.995 11.493C101.995 11.5277 101.974 11.5667 101.93 11.61L101.293 12.156C101.241 12.1907 101.207 12.208 101.189 12.208C101.155 12.208 101.116 12.182 101.072 12.13C100.102 10.804 98.7715 9.54733 97.0815 8.36C96.3621 9.20067 95.5605 9.946 94.6765 10.596C93.7925 11.2373 92.8738 11.7443 91.9205 12.117L91.8555 12.13C91.8035 12.13 91.7558 12.0997 91.7125 12.039L91.2835 11.376ZM103.264 7.528C103.229 7.49333 103.212 7.45433 103.212 7.411C103.212 7.36767 103.229 7.333 103.264 7.307C104.131 6.62233 104.824 5.79033 105.344 4.811C105.864 3.83167 106.219 2.82633 106.41 1.795C106.436 1.69967 106.497 1.65633 106.592 1.665L107.294 1.743C107.398 1.75167 107.441 1.81233 107.424 1.925C107.268 2.66167 107.077 3.329 106.852 3.927H114.184C114.288 3.927 114.34 3.979 114.34 4.083V4.733C114.34 4.837 114.288 4.889 114.184 4.889H111.311C110.982 9.08367 109.01 11.6187 105.396 12.494C105.379 12.5027 105.357 12.507 105.331 12.507C105.279 12.507 105.231 12.481 105.188 12.429L104.694 11.831C104.668 11.7877 104.655 11.753 104.655 11.727C104.655 11.6663 104.694 11.6317 104.772 11.623C106.627 11.1983 107.974 10.401 108.815 9.231C109.656 8.061 110.141 6.61367 110.271 4.889H106.436C105.838 6.111 105.045 7.151 104.057 8.009C104.022 8.04367 103.988 8.061 103.953 8.061C103.927 8.061 103.888 8.04367 103.836 8.009L103.264 7.528ZM126.664 7.411C126.664 7.515 126.612 7.567 126.508 7.567H116.836C116.732 7.567 116.68 7.515 116.68 7.411V6.696C116.68 6.592 116.732 6.54 116.836 6.54H126.508C126.612 6.54 126.664 6.592 126.664 6.696V7.411ZM130.785 2.328C130.785 2.224 130.837 2.172 130.941 2.172H138.325C138.429 2.172 138.481 2.224 138.481 2.328V2.965C138.481 3.069 138.429 3.121 138.325 3.121H130.941C130.837 3.121 130.785 3.069 130.785 2.965V2.328ZM131.318 11.753C131.301 11.7183 131.292 11.688 131.292 11.662C131.292 11.6013 131.335 11.571 131.422 11.571C132.774 11.4583 133.94 11.1463 134.919 10.635C135.898 10.1237 136.661 9.478 137.207 8.698C137.762 7.918 138.1 7.06 138.221 6.124L129.966 6.15C129.862 6.15 129.81 6.098 129.81 5.994V5.357C129.81 5.253 129.862 5.201 129.966 5.201H139.235C139.356 5.201 139.408 5.253 139.391 5.357C139.287 6.683 138.936 7.86167 138.338 8.893C137.749 9.91567 136.908 10.7477 135.816 11.389C134.733 12.0217 133.42 12.416 131.877 12.572C131.79 12.572 131.73 12.5373 131.695 12.468L131.318 11.753ZM153.548 3.004C153.531 3.01267 153.505 3.017 153.47 3.017C153.409 3.017 153.366 2.98667 153.34 2.926C153.21 2.62267 153.045 2.31067 152.846 1.99C152.655 1.66067 152.447 1.366 152.222 1.106C152.187 1.07133 152.17 1.03667 152.17 1.002C152.17 0.958667 152.205 0.924 152.274 0.898L152.625 0.754999C152.642 0.746333 152.668 0.741999 152.703 0.741999C152.746 0.741999 152.79 0.763666 152.833 0.806999C153.05 1.041 153.266 1.327 153.483 1.665C153.7 1.99433 153.882 2.31933 154.029 2.64C154.038 2.65733 154.042 2.68333 154.042 2.718C154.042 2.77867 154.012 2.822 153.951 2.848L153.548 3.004ZM152.183 3.472C151.94 5.916 151.178 7.88767 149.895 9.387C148.612 10.8863 146.74 11.8917 144.279 12.403H144.24C144.171 12.403 144.119 12.3727 144.084 12.312L143.694 11.584C143.677 11.5667 143.668 11.5407 143.668 11.506C143.668 11.4367 143.707 11.3977 143.785 11.389C146.012 11.0077 147.707 10.1887 148.868 8.932C150.038 7.67533 150.757 6.098 151.026 4.2L143.005 4.239C142.901 4.239 142.849 4.187 142.849 4.083V3.407C142.849 3.303 142.901 3.251 143.005 3.251L151.832 3.238C151.503 2.536 151.165 1.977 150.818 1.561C150.792 1.51767 150.779 1.483 150.779 1.457C150.779 1.41367 150.809 1.379 150.87 1.353L151.247 1.197C151.299 1.17967 151.329 1.171 151.338 1.171C151.381 1.171 151.42 1.197 151.455 1.249C151.689 1.51767 151.91 1.82533 152.118 2.172C152.326 2.51867 152.491 2.83933 152.612 3.134C152.621 3.15133 152.625 3.17733 152.625 3.212C152.625 3.27267 152.595 3.316 152.534 3.342L152.183 3.472ZM159.749 2.549C159.749 2.445 159.801 2.393 159.905 2.393H160.62C160.724 2.393 160.776 2.44067 160.776 2.536L160.737 10.739C161.283 10.6003 161.812 10.3403 162.323 9.959C162.843 9.57767 163.303 9.10967 163.701 8.555C164.1 8.00033 164.395 7.40233 164.585 6.761C164.629 6.63967 164.698 6.61367 164.793 6.683L165.352 7.112C165.422 7.15533 165.443 7.22033 165.417 7.307C165.157 8.12167 164.759 8.867 164.221 9.543C163.684 10.219 163.043 10.7737 162.297 11.207C161.561 11.6403 160.768 11.909 159.918 12.013H159.892C159.797 12.013 159.749 11.961 159.749 11.857V2.549ZM153.769 11.675C153.726 11.6317 153.704 11.597 153.704 11.571C153.704 11.5363 153.735 11.4973 153.795 11.454C154.636 11.0033 155.273 10.4183 155.706 9.699C156.148 8.97967 156.434 8.191 156.564 7.333C156.703 6.46633 156.772 5.43933 156.772 4.252C156.772 3.58467 156.768 3.082 156.759 2.744C156.759 2.64 156.811 2.588 156.915 2.588H157.617C157.721 2.588 157.773 2.64 157.773 2.744V3.875C157.773 5.331 157.708 6.53133 157.578 7.476C157.457 8.412 157.162 9.28733 156.694 10.102C156.235 10.9167 155.533 11.623 154.588 12.221C154.562 12.2383 154.532 12.247 154.497 12.247C154.445 12.247 154.402 12.2297 154.367 12.195L153.769 11.675ZM167.38 3.68C167.38 3.576 167.432 3.524 167.536 3.524H170.318C170.509 2.796 170.656 2.133 170.76 1.535C170.778 1.431 170.834 1.38767 170.929 1.405L171.644 1.457C171.757 1.47433 171.8 1.535 171.774 1.639C171.67 2.15033 171.523 2.77867 171.332 3.524H173.321C173.425 3.524 173.477 3.576 173.477 3.68V4.291C173.477 4.395 173.425 4.447 173.321 4.447H171.085C170.773 5.46967 170.392 6.462 169.941 7.424C169.491 8.386 168.927 9.426 168.251 10.544C168.208 10.622 168.143 10.648 168.056 10.622L167.341 10.401C167.237 10.375 167.211 10.3057 167.263 10.193C167.913 9.17033 168.468 8.19533 168.927 7.268C169.395 6.34067 169.781 5.40033 170.084 4.447H167.536C167.493 4.447 167.454 4.434 167.419 4.408C167.393 4.37333 167.38 4.33433 167.38 4.291V3.68ZM177.91 5.201C177.858 5.28767 177.785 5.305 177.689 5.253C177.265 4.967 176.775 4.73733 176.22 4.564C175.666 4.39067 175.024 4.25633 174.296 4.161C174.192 4.14367 174.153 4.083 174.179 3.979L174.335 3.42C174.361 3.32467 174.422 3.28567 174.517 3.303C176.121 3.49367 177.377 3.85333 178.287 4.382C178.339 4.408 178.365 4.447 178.365 4.499C178.365 4.525 178.352 4.55967 178.326 4.603L177.91 5.201ZM177.377 11.909C177.351 11.9437 177.317 11.961 177.273 11.961C177.239 11.961 177.204 11.9437 177.169 11.909C176.935 11.649 176.645 11.3847 176.298 11.116C175.952 10.8387 175.588 10.5873 175.206 10.362C175.172 10.83 175.059 11.2287 174.868 11.558C174.686 11.8787 174.4 12.13 174.01 12.312C173.586 12.52 173.105 12.624 172.567 12.624C172.186 12.624 171.809 12.559 171.436 12.429C171.072 12.299 170.782 12.1083 170.565 11.857C170.262 11.5103 170.11 11.1203 170.11 10.687C170.11 10.401 170.18 10.1237 170.318 9.855C170.466 9.58633 170.674 9.35667 170.942 9.166C171.376 8.854 171.922 8.698 172.58 8.698C173.1 8.698 173.655 8.79333 174.244 8.984L174.231 8.178C174.214 7.502 174.205 7.00367 174.205 6.683C174.205 6.28433 174.21 5.994 174.218 5.812C174.236 5.71667 174.292 5.669 174.387 5.669H175.024C175.128 5.669 175.18 5.721 175.18 5.825C175.163 6.25833 175.154 6.605 175.154 6.865C175.154 7.177 175.163 7.66233 175.18 8.321C175.198 8.789 175.206 9.14 175.206 9.374C175.7 9.59933 176.177 9.868 176.636 10.18C177.104 10.4833 177.516 10.7953 177.871 11.116C177.915 11.1593 177.936 11.1983 177.936 11.233C177.936 11.2503 177.919 11.285 177.884 11.337L177.377 11.909ZM174.27 9.907C173.672 9.647 173.122 9.517 172.619 9.517C172.16 9.517 171.779 9.62533 171.475 9.842C171.319 9.95467 171.202 10.0847 171.124 10.232C171.046 10.3707 171.007 10.5137 171.007 10.661C171.007 10.9557 171.133 11.2027 171.384 11.402C171.532 11.532 171.714 11.6317 171.93 11.701C172.156 11.7617 172.381 11.792 172.606 11.792C173.161 11.792 173.568 11.6577 173.828 11.389C174.088 11.1117 174.236 10.687 174.27 10.115V9.907ZM183.747 4.772C183.721 4.72867 183.708 4.69833 183.708 4.681C183.708 4.629 183.739 4.59 183.799 4.564C184.527 4.20867 185.182 3.732 185.762 3.134C186.343 2.536 186.776 1.91633 187.062 1.275C187.106 1.197 187.166 1.158 187.244 1.158H187.946C188.033 1.158 188.098 1.19267 188.141 1.262C188.549 1.92933 189.03 2.54033 189.584 3.095C190.148 3.64967 190.785 4.10467 191.495 4.46C191.591 4.512 191.612 4.58567 191.56 4.681L191.248 5.292C191.196 5.38733 191.127 5.409 191.04 5.357C190.382 4.967 189.74 4.46867 189.116 3.862C188.501 3.24667 188.003 2.614 187.621 1.964C187.335 2.614 186.876 3.25967 186.243 3.901C185.619 4.53367 184.978 5.03633 184.319 5.409C184.285 5.42633 184.259 5.435 184.241 5.435C184.189 5.435 184.146 5.40467 184.111 5.344L183.747 4.772ZM180.133 1.717C180.133 1.67367 180.146 1.639 180.172 1.613C180.207 1.57833 180.246 1.561 180.289 1.561H183.292C183.396 1.561 183.448 1.613 183.448 1.717V2.315C183.448 2.419 183.396 2.471 183.292 2.471H180.289C180.246 2.471 180.207 2.458 180.172 2.432C180.146 2.39733 180.133 2.35833 180.133 2.315V1.717ZM179.613 3.576C179.613 3.472 179.665 3.42 179.769 3.42H183.695C183.739 3.42 183.773 3.43733 183.799 3.472C183.834 3.498 183.851 3.53267 183.851 3.576V4.213C183.851 4.25633 183.834 4.29533 183.799 4.33C183.773 4.356 183.739 4.369 183.695 4.369H179.769C179.665 4.369 179.613 4.317 179.613 4.213V3.576ZM185.658 4.733C185.658 4.629 185.71 4.577 185.814 4.577H189.584C189.688 4.577 189.74 4.629 189.74 4.733V5.227C189.74 5.331 189.688 5.383 189.584 5.383H185.814C185.71 5.383 185.658 5.331 185.658 5.227V4.733ZM180.133 5.539C180.133 5.49567 180.146 5.461 180.172 5.435C180.207 5.40033 180.246 5.383 180.289 5.383H183.292C183.336 5.383 183.37 5.40033 183.396 5.435C183.431 5.461 183.448 5.49567 183.448 5.539V6.085C183.448 6.12833 183.431 6.16733 183.396 6.202C183.37 6.228 183.336 6.241 183.292 6.241H180.289C180.246 6.241 180.207 6.228 180.172 6.202C180.146 6.16733 180.133 6.12833 180.133 6.085V5.539ZM185.268 10.011V12.832C185.268 12.8753 185.251 12.91 185.216 12.936C185.19 12.9707 185.156 12.988 185.112 12.988H184.644C184.54 12.988 184.488 12.936 184.488 12.832V6.488C184.488 6.384 184.54 6.332 184.644 6.332H190.832C190.936 6.332 190.988 6.384 190.988 6.488V11.467C190.988 11.8397 190.949 12.1257 190.871 12.325C190.802 12.533 190.672 12.6847 190.481 12.78C190.291 12.8753 190.013 12.9273 189.649 12.936C189.554 12.936 189.493 12.897 189.467 12.819L189.272 12.299C189.264 12.2817 189.259 12.26 189.259 12.234C189.259 12.156 189.307 12.117 189.402 12.117C189.706 12.117 189.914 12.0693 190.026 11.974C190.139 11.8787 190.195 11.701 190.195 11.441V10.011H188.947V12.442C188.947 12.546 188.895 12.598 188.791 12.598H188.401C188.297 12.598 188.245 12.546 188.245 12.442V10.011H187.127V12.468C187.127 12.572 187.075 12.624 186.971 12.624H186.581C186.477 12.624 186.425 12.572 186.425 12.468V10.011H185.268ZM190.195 7.112H188.947V9.27H190.195V7.112ZM186.425 7.112H185.268V9.27H186.425V7.112ZM188.245 7.112H187.127V9.27H188.245V7.112ZM180.133 7.385C180.133 7.34167 180.146 7.307 180.172 7.281C180.207 7.24633 180.246 7.229 180.289 7.229H183.292C183.336 7.229 183.37 7.24633 183.396 7.281C183.431 7.307 183.448 7.34167 183.448 7.385V7.931C183.448 7.97433 183.431 8.01333 183.396 8.048C183.37 8.074 183.336 8.087 183.292 8.087H180.289C180.246 8.087 180.207 8.074 180.172 8.048C180.146 8.01333 180.133 7.97433 180.133 7.931V7.385ZM180.003 9.205C180.003 9.101 180.055 9.049 180.159 9.049H183.396C183.5 9.049 183.552 9.101 183.552 9.205V12.507C183.552 12.611 183.5 12.663 183.396 12.663H180.159C180.055 12.663 180.003 12.611 180.003 12.507V9.205ZM182.72 9.842H180.848V11.831H182.72V9.842ZM202.22 4.174C201.692 6.29733 200.756 8.07833 199.412 9.517C200.738 10.6177 202.381 11.4193 204.339 11.922C204.391 11.9393 204.426 11.9653 204.443 12C204.461 12.0347 204.452 12.0737 204.417 12.117L204.027 12.845C203.993 12.923 203.928 12.949 203.832 12.923C201.744 12.351 200.01 11.467 198.632 10.271C197.194 11.5277 195.417 12.4203 193.302 12.949L193.237 12.962C193.185 12.962 193.142 12.9317 193.107 12.871L192.73 12.169C192.713 12.1343 192.704 12.1083 192.704 12.091C192.704 12.0217 192.743 11.9827 192.821 11.974C194.841 11.506 196.522 10.6913 197.865 9.53C196.557 8.14333 195.56 6.358 194.875 4.174H193.055C192.951 4.174 192.899 4.122 192.899 4.018V3.342C192.899 3.238 192.951 3.186 193.055 3.186H198.021V1.262C198.021 1.158 198.073 1.106 198.177 1.106H198.957C199.061 1.106 199.113 1.158 199.113 1.262V3.186H204.066C204.17 3.186 204.222 3.238 204.222 3.342V4.018C204.222 4.122 204.17 4.174 204.066 4.174H202.22ZM196.019 4.174C196.574 6.02 197.445 7.56267 198.632 8.802C199.82 7.54533 200.643 6.00267 201.102 4.174H196.019ZM214.57 5.045C214.874 5.50433 215.268 5.92033 215.753 6.293C216.247 6.66567 216.793 6.96467 217.391 7.19C217.435 7.20733 217.465 7.23767 217.482 7.281C217.5 7.31567 217.495 7.35467 217.469 7.398L217.131 7.996C217.079 8.08267 217.01 8.10433 216.923 8.061C216.23 7.74033 215.593 7.32 215.012 6.8C214.432 6.28 213.964 5.695 213.608 5.045H212.412C212.092 5.65167 211.658 6.22367 211.112 6.761C210.575 7.28967 209.929 7.749 209.175 8.139C209.123 8.15633 209.093 8.165 209.084 8.165C209.041 8.165 208.998 8.139 208.954 8.087L208.551 7.554C208.525 7.51067 208.512 7.48033 208.512 7.463C208.512 7.411 208.547 7.372 208.616 7.346C209.83 6.81733 210.766 6.05033 211.424 5.045H208.889C208.785 5.045 208.733 4.993 208.733 4.889V4.369C208.733 4.265 208.785 4.213 208.889 4.213H211.853C212.061 3.68433 212.213 3.15567 212.308 2.627C211.442 2.69633 210.532 2.73967 209.578 2.757C209.492 2.757 209.435 2.71367 209.409 2.627L209.214 2.081C209.206 2.06367 209.201 2.042 209.201 2.016C209.201 1.938 209.249 1.899 209.344 1.899C210.601 1.91633 211.866 1.86433 213.14 1.743C214.423 1.62167 215.463 1.45267 216.26 1.236L216.312 1.223C216.382 1.223 216.429 1.262 216.455 1.34L216.65 1.847C216.659 1.86433 216.663 1.89033 216.663 1.925C216.663 1.99433 216.629 2.03333 216.559 2.042C215.745 2.23267 214.666 2.39733 213.322 2.536C213.192 3.16 213.032 3.719 212.841 4.213H217.157C217.261 4.213 217.313 4.265 217.313 4.369V4.889C217.313 4.993 217.261 5.045 217.157 5.045H214.57ZM208.265 3.42C208.231 3.46333 208.196 3.485 208.161 3.485C208.118 3.485 208.079 3.46767 208.044 3.433C207.55 2.92167 206.922 2.458 206.159 2.042C206.099 2.016 206.068 1.977 206.068 1.925C206.068 1.89033 206.081 1.85567 206.107 1.821L206.458 1.353C206.51 1.28367 206.58 1.26633 206.666 1.301C207.429 1.691 208.079 2.15467 208.616 2.692C208.66 2.73533 208.681 2.77433 208.681 2.809C208.681 2.835 208.668 2.86967 208.642 2.913L208.265 3.42ZM207.953 6.488C207.919 6.53133 207.884 6.553 207.849 6.553C207.806 6.553 207.767 6.53567 207.732 6.501C207.204 5.98967 206.567 5.53467 205.821 5.136C205.735 5.084 205.717 5.01033 205.769 4.915L206.12 4.421C206.172 4.35167 206.242 4.33433 206.328 4.369C207.091 4.759 207.745 5.214 208.291 5.734C208.361 5.80333 208.369 5.877 208.317 5.955L207.953 6.488ZM210.423 12.247C210.415 12.2297 210.41 12.208 210.41 12.182C210.41 12.1473 210.423 12.117 210.449 12.091C210.475 12.0737 210.514 12.0693 210.566 12.078C211 12.0867 211.32 12.065 211.528 12.013C211.745 11.961 211.888 11.8787 211.957 11.766C212.027 11.6447 212.061 11.4757 212.061 11.259V6.748C212.061 6.644 212.113 6.592 212.217 6.592H212.815C212.919 6.592 212.971 6.644 212.971 6.748V11.363C212.971 11.7703 212.911 12.0867 212.789 12.312C212.677 12.546 212.469 12.7107 212.165 12.806C211.862 12.91 211.429 12.962 210.865 12.962C210.787 12.962 210.727 12.923 210.683 12.845L210.423 12.247ZM205.873 12.143C205.778 12.091 205.756 12.0173 205.808 11.922C206.484 10.8993 207.078 9.56467 207.589 7.918C207.633 7.80533 207.702 7.775 207.797 7.827L208.33 8.126C208.417 8.16067 208.447 8.22567 208.421 8.321C207.901 10.0283 207.334 11.3803 206.718 12.377C206.666 12.4463 206.597 12.4637 206.51 12.429L205.873 12.143ZM216.832 11.792C216.815 11.8007 216.789 11.805 216.754 11.805C216.694 11.805 216.65 11.7703 216.624 11.701C216.321 10.6437 215.883 9.608 215.311 8.594C215.294 8.57667 215.285 8.54633 215.285 8.503C215.285 8.451 215.316 8.412 215.376 8.386L215.909 8.191C215.927 8.18233 215.953 8.178 215.987 8.178C216.039 8.178 216.083 8.204 216.117 8.256C216.395 8.71533 216.655 9.218 216.897 9.764C217.149 10.3013 217.361 10.8257 217.534 11.337C217.543 11.3543 217.547 11.376 217.547 11.402C217.547 11.4627 217.513 11.506 217.443 11.532L216.832 11.792ZM214.609 11.896C214.592 11.9047 214.57 11.909 214.544 11.909C214.518 11.909 214.492 11.896 214.466 11.87C214.449 11.844 214.436 11.8137 214.427 11.779C214.254 10.6177 213.964 9.556 213.556 8.594C213.548 8.57667 213.543 8.55067 213.543 8.516C213.543 8.44667 213.582 8.40767 213.66 8.399L214.18 8.269L214.245 8.256C214.315 8.256 214.362 8.29067 214.388 8.36C214.804 9.30467 215.134 10.362 215.376 11.532V11.571C215.376 11.6403 215.337 11.688 215.259 11.714L214.609 11.896ZM208.759 11.519C208.707 11.493 208.681 11.454 208.681 11.402C208.681 11.3673 208.694 11.3327 208.72 11.298C209.058 10.9253 209.362 10.4877 209.63 9.985C209.899 9.48233 210.111 8.97967 210.267 8.477C210.293 8.373 210.358 8.33833 210.462 8.373L211.008 8.542C211.104 8.58533 211.138 8.65033 211.112 8.737C210.939 9.30033 210.714 9.86367 210.436 10.427C210.159 10.9817 209.856 11.4453 209.526 11.818C209.466 11.8873 209.396 11.896 209.318 11.844L208.759 11.519ZM219.354 13.001C219.25 13.001 219.198 12.949 219.198 12.845V4.772C219.198 4.668 219.25 4.616 219.354 4.616H221.746V1.262C221.746 1.158 221.798 1.106 221.902 1.106H222.526C222.63 1.106 222.682 1.158 222.682 1.262V4.616H225.126C225.23 4.616 225.282 4.668 225.282 4.772V11.181C225.282 11.2763 225.265 11.467 225.23 11.753C225.178 12.195 224.996 12.5027 224.684 12.676C224.372 12.8493 223.844 12.9273 223.098 12.91C223.003 12.91 222.942 12.871 222.916 12.793L222.695 12.208L222.682 12.156C222.682 12.078 222.734 12.039 222.838 12.039C223.272 12.0563 223.597 12.0433 223.813 12C224.03 11.9567 224.177 11.8787 224.255 11.766C224.333 11.6533 224.372 11.4887 224.372 11.272V10.141H220.108V12.845C220.108 12.949 220.056 13.001 219.952 13.001H219.354ZM227.011 12.104C227.011 12.0607 227.024 12.026 227.05 12C227.085 11.9827 227.124 11.9783 227.167 11.987C227.271 11.9957 227.414 12 227.596 12C228.142 12 228.511 11.9307 228.701 11.792C228.901 11.6447 229 11.4107 229 11.09V1.262C229 1.158 229.052 1.106 229.156 1.106H229.78C229.884 1.106 229.936 1.158 229.936 1.262V10.817C229.936 11.2157 229.928 11.506 229.91 11.688C229.884 12.026 229.793 12.2903 229.637 12.481C229.481 12.6717 229.23 12.806 228.883 12.884C228.545 12.9707 228.077 13.0053 227.479 12.988C227.384 12.988 227.323 12.949 227.297 12.871L227.024 12.156L227.011 12.104ZM223.462 3.94C223.402 3.914 223.371 3.87933 223.371 3.836C223.371 3.80133 223.389 3.76667 223.423 3.732C223.692 3.43733 223.939 3.095 224.164 2.705C224.39 2.315 224.563 1.92933 224.684 1.548C224.728 1.45267 224.797 1.42233 224.892 1.457L225.438 1.652C225.534 1.69533 225.564 1.76033 225.529 1.847C225.365 2.263 225.161 2.68333 224.918 3.108C224.684 3.524 224.446 3.87933 224.203 4.174C224.143 4.23467 224.073 4.24767 223.995 4.213L223.462 3.94ZM220.394 4.161C220.36 4.17833 220.329 4.187 220.303 4.187C220.251 4.187 220.212 4.15667 220.186 4.096C219.857 3.37667 219.402 2.692 218.821 2.042C218.795 1.99867 218.782 1.964 218.782 1.938C218.782 1.886 218.808 1.847 218.86 1.821L219.354 1.561C219.389 1.54367 219.419 1.535 219.445 1.535C219.489 1.535 219.528 1.55667 219.562 1.6C220.169 2.25867 220.641 2.94767 220.979 3.667C220.997 3.70167 221.005 3.732 221.005 3.758C221.005 3.81 220.975 3.849 220.914 3.875L220.394 4.161ZM226.777 9.946C226.673 9.946 226.621 9.894 226.621 9.79V2.055C226.621 1.951 226.673 1.899 226.777 1.899H227.375C227.479 1.899 227.531 1.951 227.531 2.055V9.79C227.531 9.894 227.479 9.946 227.375 9.946H226.777ZM224.372 5.461H220.108V7.008H224.372V5.461ZM224.372 7.814H220.108V9.335H224.372V7.814ZM231.561 12.325C231.509 12.325 231.47 12.3077 231.444 12.273C231.427 12.247 231.431 12.208 231.457 12.156L235.448 2.354C235.483 2.276 235.544 2.237 235.63 2.237H236.436C236.523 2.237 236.579 2.276 236.605 2.354L240.622 12.156C240.631 12.1733 240.635 12.195 240.635 12.221C240.635 12.2903 240.592 12.325 240.505 12.325H239.517C239.431 12.325 239.374 12.2903 239.348 12.221L238.399 9.803H233.641L232.692 12.221C232.649 12.2903 232.588 12.325 232.51 12.325H231.561ZM236.007 3.667L234.044 8.724H237.996L236.007 3.667ZM242.348 12.325C242.244 12.325 242.192 12.273 242.192 12.169V2.38C242.192 2.28467 242.244 2.237 242.348 2.237H243.193C243.297 2.237 243.349 2.28467 243.349 2.38V12.169C243.349 12.273 243.297 12.325 243.193 12.325H242.348Z" fill="white"/>
</svg>
