<svg width="281" height="25" viewBox="0 0 281 25" fill="none" xmlns="http://www.w3.org/2000/svg">
<path d="M3.038 7.836C4.074 7.948 5.376 8.004 6.86 8.004C8.232 8.004 9.842 7.92 10.906 7.808V9.67C9.926 9.754 8.204 9.838 6.86 9.838C5.404 9.838 4.186 9.768 3.038 9.684V7.836ZM4.214 13.758C4.088 14.262 3.976 14.71 3.976 15.186C3.976 16.068 4.844 16.726 6.86 16.726C8.736 16.726 10.528 16.516 11.774 16.166L11.788 18.14C10.556 18.42 8.876 18.602 6.916 18.602C3.724 18.602 2.1 17.538 2.1 15.606C2.1 14.808 2.282 14.122 2.38 13.59L4.214 13.758ZM22.274 8.41C22.078 9.838 21.798 11.476 21.308 13.128C20.468 15.956 19.264 17.692 17.738 17.692C16.17 17.692 14.882 15.97 14.882 13.604C14.882 10.384 17.696 7.612 21.322 7.612C24.78 7.612 26.978 10.02 26.978 13.086C26.978 16.026 25.172 18.112 21.644 18.658L20.58 17.006C21.126 16.936 21.518 16.866 21.896 16.782C23.674 16.348 25.074 15.074 25.074 13.016C25.074 10.818 23.702 9.25 21.28 9.25C18.312 9.25 16.688 11.672 16.688 13.436C16.688 14.85 17.248 15.536 17.78 15.536C18.382 15.536 18.914 14.64 19.502 12.75C19.908 11.434 20.216 9.824 20.356 8.354L22.274 8.41ZM37.674 9.236L39.466 9.754C37.702 14.794 34.44 17.734 29.428 19.302C29.232 18.882 28.7 18.07 28.364 17.664C33.208 16.39 36.218 13.8 37.674 9.236ZM32.27 9.348C33.684 13.492 36.708 16.474 41.692 17.594C41.286 17.986 40.74 18.784 40.474 19.274C35.224 17.902 32.34 14.696 30.59 9.852L32.27 9.348ZM28.616 8.326H41.44V9.978H28.616V8.326ZM34.118 6.114H35.854V9.334H34.118V6.114ZM42.966 8.41C43.512 8.396 44.072 8.368 44.338 8.34C45.5 8.228 47.81 8.032 50.372 7.808C51.828 7.696 53.354 7.598 54.348 7.556L54.362 9.362C53.606 9.362 52.402 9.376 51.646 9.544C49.966 9.992 48.692 11.812 48.692 13.478C48.692 15.774 50.848 16.614 53.214 16.726L52.556 18.644C49.63 18.462 46.858 16.88 46.858 13.842C46.858 11.84 47.992 10.244 48.93 9.53C47.628 9.67 44.758 9.978 43.148 10.328L42.966 8.41ZM52.36 10.734C52.696 11.224 53.2 12.078 53.466 12.638L52.416 13.1C52.052 12.344 51.758 11.784 51.324 11.168L52.36 10.734ZM53.914 10.09C54.278 10.58 54.81 11.406 55.104 11.952L54.054 12.456C53.676 11.7 53.354 11.168 52.906 10.552L53.914 10.09ZM61.46 9.404C62.272 9.488 63.07 9.53 63.924 9.53C65.632 9.53 67.382 9.39 68.838 9.082V10.818C67.368 11.042 65.604 11.154 63.924 11.168C63.098 11.168 62.3 11.14 61.474 11.084L61.46 9.404ZM66.794 7.052C66.752 7.318 66.724 7.654 66.71 7.948C66.682 8.41 66.654 9.376 66.654 10.384C66.654 12.96 66.878 14.78 66.878 16.11C66.878 17.58 66.15 18.644 64.134 18.644C62.188 18.644 60.984 17.846 60.984 16.376C60.984 14.948 62.188 13.968 64.106 13.968C66.738 13.968 68.432 15.284 69.524 16.292L68.572 17.762C66.962 16.264 65.548 15.326 63.966 15.326C63.168 15.326 62.622 15.648 62.622 16.18C62.622 16.754 63.182 17.006 63.938 17.006C64.792 17.006 65.086 16.558 65.086 15.732C65.086 14.766 64.904 12.414 64.904 10.398C64.904 9.334 64.89 8.396 64.876 7.976C64.876 7.752 64.834 7.318 64.792 7.052H66.794ZM59.962 7.192C59.85 7.472 59.682 8.2 59.626 8.452C59.416 9.39 58.954 12.47 58.954 13.87C58.954 14.136 58.968 14.5 59.01 14.78C59.206 14.29 59.444 13.814 59.64 13.338L60.508 14.024C60.116 15.186 59.654 16.6 59.5 17.37C59.458 17.566 59.416 17.874 59.43 18.014C59.43 18.168 59.43 18.406 59.444 18.602L57.862 18.714C57.582 17.748 57.302 16.138 57.302 14.248C57.302 12.134 57.722 9.488 57.89 8.41C57.946 8.018 58.002 7.472 58.016 7.038L59.962 7.192ZM74.9 8.522L76.44 7.78C77.35 8.802 78.246 10.174 78.652 11.154L77.014 12.036C76.65 11.056 75.754 9.586 74.9 8.522ZM70.35 15.886C71.792 15.396 74.018 14.5 76.062 13.646L76.454 15.298C74.592 16.138 72.52 17.006 70.938 17.678L70.35 15.886ZM78.554 14.626L79.856 13.45C81.13 14.78 82.922 16.642 83.72 17.86L82.292 19.246C81.55 18 79.842 16.054 78.554 14.626ZM80.458 6.912L82.32 7.08C81.662 13.422 79.968 17.216 75.376 19.288C75.138 18.91 74.438 18.154 74.032 17.79C78.498 16.11 79.94 12.694 80.458 6.912ZM71.946 6.968L73.71 6.898L74.018 15.998L72.268 16.068L71.946 6.968ZM84.714 7.136H97.286V8.83H84.714V7.136ZM89.796 8.662H91.602V19.232H89.796V8.662ZM90.748 12.05L91.896 10.72C93.422 11.476 95.62 12.694 96.698 13.562L95.452 15.102C94.458 14.22 92.33 12.904 90.748 12.05ZM106.274 8.41C106.078 9.838 105.798 11.476 105.308 13.128C104.468 15.956 103.264 17.692 101.738 17.692C100.17 17.692 98.882 15.97 98.882 13.604C98.882 10.384 101.696 7.612 105.322 7.612C108.78 7.612 110.978 10.02 110.978 13.086C110.978 16.026 109.172 18.112 105.644 18.658L104.58 17.006C105.126 16.936 105.518 16.866 105.896 16.782C107.674 16.348 109.074 15.074 109.074 13.016C109.074 10.818 107.702 9.25 105.28 9.25C102.312 9.25 100.688 11.672 100.688 13.436C100.688 14.85 101.248 15.536 101.78 15.536C102.382 15.536 102.914 14.64 103.502 12.75C103.908 11.434 104.216 9.824 104.356 8.354L106.274 8.41ZM118.062 6.128H119.728V9.936C119.728 10.454 119.868 10.524 120.694 10.524C121.072 10.524 122.668 10.524 123.13 10.524C123.83 10.524 123.942 10.3 124.04 8.914C124.39 9.166 125.104 9.418 125.552 9.516C125.342 11.504 124.852 12.022 123.256 12.022C122.836 12.022 120.932 12.022 120.526 12.022C118.566 12.022 118.062 11.546 118.062 9.936V6.128ZM123.48 6.716L124.726 7.934C123.172 8.578 121.086 9.082 119.294 9.418C119.21 9.054 118.972 8.494 118.79 8.172C120.47 7.822 122.346 7.262 123.48 6.716ZM118.034 12.834H124.866V19.19H123.2V14.22H119.616V19.26H118.034V12.834ZM118.874 15.088H123.774V16.39H118.874V15.088ZM118.804 17.314H123.774V18.644H118.804V17.314ZM112.294 13.254C113.596 12.974 115.542 12.498 117.362 12.022L117.558 13.562C115.892 14.038 114.1 14.5 112.7 14.864L112.294 13.254ZM112.504 8.746H117.334V10.314H112.504V8.746ZM114.254 6.114H115.906V17.454C115.906 18.266 115.766 18.686 115.29 18.938C114.814 19.19 114.142 19.246 113.148 19.232C113.106 18.812 112.882 18.126 112.686 17.706C113.232 17.72 113.806 17.72 113.988 17.72C114.184 17.706 114.254 17.65 114.254 17.454V6.114ZM130.858 7.332H139.328V8.746H130.858V7.332ZM134.232 6.114H135.87V8.354H134.232V6.114ZM134.414 11.28H135.702V14.906H134.414V11.28ZM130.97 10.02H138.516V11.378H132.482V19.246H130.97V10.02ZM137.634 10.02H139.216V17.566C139.216 18.294 139.09 18.714 138.642 18.98C138.194 19.218 137.592 19.232 136.752 19.232C136.696 18.812 136.514 18.154 136.318 17.748C136.78 17.762 137.27 17.762 137.424 17.762C137.592 17.762 137.634 17.706 137.634 17.552V10.02ZM133.112 14.5H134.302V18.21H133.112V14.5ZM133.91 14.5H137.046V17.622H133.91V16.502H135.786V15.606H133.91V14.5ZM132.818 12.316H137.27V13.506H132.818V12.316ZM136.388 8.48L138.026 8.718C137.774 9.334 137.55 9.894 137.354 10.3L135.926 10.062C136.094 9.6 136.304 8.942 136.388 8.48ZM132.286 8.802L133.714 8.494C133.938 8.942 134.134 9.6 134.19 10.02L132.692 10.384C132.65 9.964 132.482 9.306 132.286 8.802ZM126.28 13.156C127.4 12.904 129.066 12.456 130.648 12.008L130.872 13.52C129.43 13.968 127.89 14.416 126.658 14.766L126.28 13.156ZM126.504 8.774H130.788V10.314H126.504V8.774ZM127.988 6.128H129.528V17.482C129.528 18.266 129.388 18.7 128.954 18.952C128.534 19.218 127.932 19.274 127.022 19.274C126.98 18.854 126.784 18.168 126.588 17.706C127.092 17.734 127.582 17.734 127.75 17.72C127.918 17.72 127.988 17.678 127.988 17.482V6.128ZM146.356 7.052C146.272 7.416 146.188 7.864 146.118 8.214C145.978 8.844 145.81 9.712 145.656 10.426C145.194 12.4 144.074 16.39 142.604 18.756L140.77 18.028C142.436 15.788 143.486 12.092 143.878 10.328C144.144 9.068 144.298 7.878 144.284 6.828L146.356 7.052ZM151.186 8.452C152.04 9.67 153.216 12.274 153.65 13.604L151.872 14.43C151.508 12.876 150.514 10.412 149.506 9.166L151.186 8.452ZM140.686 9.922C141.19 9.95 141.666 9.936 142.184 9.922C143.304 9.894 145.964 9.586 147 9.586C148.484 9.586 149.534 10.244 149.534 12.274C149.534 13.926 149.324 16.194 148.736 17.398C148.274 18.378 147.49 18.686 146.44 18.686C145.894 18.686 145.236 18.602 144.76 18.49L144.452 16.642C144.998 16.796 145.796 16.936 146.16 16.936C146.636 16.936 147 16.796 147.21 16.334C147.602 15.55 147.784 13.842 147.784 12.47C147.784 11.35 147.308 11.182 146.426 11.182C145.6 11.182 143.178 11.49 142.408 11.588C142.002 11.644 141.274 11.742 140.854 11.812L140.686 9.922ZM150.934 6.52C151.284 7.024 151.774 7.92 152.04 8.438L150.92 8.914C150.626 8.34 150.192 7.514 149.814 6.968L150.934 6.52ZM152.586 5.876C152.95 6.408 153.468 7.304 153.72 7.794L152.6 8.27C152.32 7.682 151.858 6.87 151.48 6.338L152.586 5.876ZM160.944 6.744C160.86 7.01 160.804 7.262 160.748 7.486C160.482 8.788 160.244 10.804 160.244 12.54C160.244 14.752 160.65 16.32 161.112 17.734L159.502 18.21C159.082 16.95 158.676 14.878 158.676 12.82C158.676 10.986 158.928 8.928 159.082 7.542C159.11 7.262 159.138 6.94 159.124 6.688L160.944 6.744ZM158.438 8.284C161.098 8.284 163.212 8.158 165.354 7.64L165.368 9.25C163.45 9.6 160.51 9.81 158.396 9.81C157.654 9.81 156.562 9.74 155.904 9.712L155.862 8.102C156.366 8.172 157.584 8.284 158.438 8.284ZM164.486 10.342C164.374 10.594 164.164 11.238 164.066 11.532C163.268 14.052 161.826 15.942 160.496 16.922C159.586 17.594 158.368 18.21 157.15 18.21C156.128 18.21 155.274 17.594 155.274 16.166C155.274 14.192 157.038 12.134 159.264 11.322C160.188 10.986 161.336 10.776 162.386 10.776C165.004 10.776 166.936 12.288 166.936 14.472C166.936 16.46 165.76 18.378 162.33 18.91L161.392 17.426C164.094 17.132 165.2 15.774 165.2 14.388C165.2 13.198 164.178 12.19 162.288 12.19C161.014 12.19 160.006 12.554 159.32 12.862C157.92 13.52 156.926 14.864 156.926 15.802C156.926 16.264 157.108 16.502 157.57 16.502C158.228 16.502 159.166 16.04 160.02 15.242C161.042 14.304 161.994 13.058 162.554 11.126C162.652 10.832 162.75 10.23 162.764 9.922L164.486 10.342ZM171.08 7.346C171.472 7.388 171.948 7.416 172.34 7.416C173.096 7.416 176.078 7.346 176.876 7.276C177.464 7.234 177.786 7.178 177.954 7.122L178.85 8.382C178.528 8.592 178.192 8.788 177.884 9.026C177.128 9.558 175.658 10.79 174.762 11.49C175.238 11.364 175.658 11.336 176.092 11.336C178.472 11.336 180.278 12.82 180.278 14.85C180.278 17.062 178.598 18.812 175.21 18.812C173.264 18.812 171.794 17.93 171.794 16.516C171.794 15.382 172.83 14.346 174.314 14.346C176.232 14.346 177.296 15.634 177.338 17.174L175.7 17.384C175.672 16.376 175.14 15.676 174.314 15.676C173.796 15.676 173.446 15.998 173.446 16.362C173.446 16.88 174.02 17.23 174.874 17.23C177.24 17.23 178.444 16.334 178.444 14.836C178.444 13.562 177.184 12.708 175.546 12.708C173.39 12.708 172.004 13.856 170.506 15.55L169.232 14.234C170.226 13.45 171.92 12.022 172.732 11.336C173.516 10.692 174.986 9.516 175.672 8.9C174.958 8.928 173.026 8.998 172.27 9.054C171.892 9.082 171.458 9.11 171.136 9.166L171.08 7.346ZM189.966 6.786C189.91 7.192 189.868 7.878 189.84 8.424C189.826 9.096 189.84 9.894 189.84 10.692C189.84 12.246 190.106 15.256 190.106 16.432C190.106 17.678 189.462 18.854 187.124 18.854C185.108 18.854 183.47 18.196 183.47 16.306C183.47 14.836 184.73 13.688 187.292 13.688C190.218 13.688 192.836 15.158 194.264 16.474L193.186 18.154C191.8 16.754 189.574 15.242 187.04 15.242C185.948 15.242 185.29 15.606 185.29 16.222C185.29 16.894 185.99 17.16 186.97 17.16C187.866 17.16 188.202 16.754 188.202 15.83C188.202 14.85 188.034 12.022 188.034 10.692C188.034 9.852 188.02 9.026 188.006 8.424C187.992 7.724 187.95 7.122 187.866 6.786H189.966ZM188.902 9.46C189.728 9.46 192.178 9.404 193.746 9.236L193.816 10.902C192.234 11.042 189.77 11.112 188.902 11.112V9.46ZM205.576 13.422C205.576 12.498 204.862 11.756 203.546 11.756C202.006 11.756 200.606 12.218 199.906 12.428C199.5 12.554 198.94 12.764 198.548 12.932L198.016 10.916C198.492 10.888 199.08 10.776 199.542 10.678C200.564 10.454 202.132 10.048 203.784 10.048C205.996 10.048 207.55 11.308 207.55 13.492C207.55 16.502 204.764 18.35 200.872 18.896L199.878 17.146C203.35 16.754 205.576 15.62 205.576 13.422ZM200.074 6.702C201.712 7.052 204.89 7.332 206.36 7.332L206.094 9.054C204.456 8.942 201.418 8.662 199.808 8.382L200.074 6.702ZM210.966 8.41C211.512 8.396 212.072 8.368 212.338 8.34C213.5 8.228 215.81 8.032 218.372 7.808C219.828 7.696 221.354 7.598 222.348 7.556L222.362 9.362C221.606 9.362 220.402 9.376 219.646 9.544C217.966 9.992 216.692 11.812 216.692 13.478C216.692 15.774 218.848 16.614 221.214 16.726L220.556 18.644C217.63 18.462 214.858 16.88 214.858 13.842C214.858 11.84 215.992 10.244 216.93 9.53C215.628 9.67 212.758 9.978 211.148 10.328L210.966 8.41ZM220.36 10.734C220.696 11.224 221.2 12.078 221.466 12.638L220.416 13.1C220.052 12.344 219.758 11.784 219.324 11.168L220.36 10.734ZM221.914 10.09C222.278 10.58 222.81 11.406 223.104 11.952L222.054 12.456C221.676 11.7 221.354 11.168 220.906 10.552L221.914 10.09ZM233.142 6.716C233.1 6.954 233.058 7.696 233.044 7.92C233.002 8.844 233.03 11.7 233.044 12.82L231.294 12.232C231.294 11.364 231.294 8.676 231.238 7.934C231.196 7.374 231.14 6.898 231.112 6.716H233.142ZM225.218 8.466C227.304 8.466 231 8.354 232.75 8.354C234.178 8.354 236.306 8.34 237.09 8.354L237.062 10.006C236.194 9.964 234.766 9.922 232.708 9.922C230.16 9.922 227.374 10.034 225.26 10.146L225.218 8.466ZM232.806 12.61C232.806 14.892 231.966 16.026 230.356 16.026C229.278 16.026 227.934 15.172 227.934 13.464C227.934 11.882 229.222 10.846 230.734 10.846C232.582 10.846 233.548 12.204 233.548 13.94C233.548 15.774 232.47 18.084 229.054 19.05L227.57 17.566C229.95 17.048 231.812 16.11 231.812 13.66C231.812 12.75 231.322 12.316 230.706 12.316C230.16 12.316 229.614 12.694 229.614 13.436C229.614 14.066 230.132 14.472 230.706 14.472C231.364 14.472 231.938 13.912 231.49 12.246L232.806 12.61ZM240.188 18.1591C239.803 18.1591 239.473 18.0249 239.198 17.7564C238.926 17.4846 238.792 17.1548 238.795 16.767C238.792 16.3892 238.926 16.0661 239.198 15.7976C239.473 15.5291 239.803 15.3949 240.188 15.3949C240.552 15.3949 240.874 15.5291 241.152 15.7976C241.434 16.0661 241.576 16.3892 241.58 16.767C241.576 17.0256 241.508 17.2609 241.376 17.473C241.246 17.6818 241.077 17.8492 240.869 17.9751C240.66 18.0978 240.433 18.1591 240.188 18.1591ZM244.562 18.1591C244.178 18.1591 243.848 18.0249 243.573 17.7564C243.301 17.4846 243.167 17.1548 243.17 16.767C243.167 16.3892 243.301 16.0661 243.573 15.7976C243.848 15.5291 244.178 15.3949 244.562 15.3949C244.927 15.3949 245.249 15.5291 245.527 15.7976C245.809 16.0661 245.951 16.3892 245.955 16.767C245.951 17.0256 245.883 17.2609 245.751 17.473C245.621 17.6818 245.452 17.8492 245.244 17.9751C245.035 18.0978 244.808 18.1591 244.562 18.1591ZM248.938 18.1591C248.553 18.1591 248.223 18.0249 247.948 17.7564C247.676 17.4846 247.542 17.1548 247.545 16.767C247.542 16.3892 247.676 16.0661 247.948 15.7976C248.223 15.5291 248.553 15.3949 248.938 15.3949C249.302 15.3949 249.624 15.5291 249.902 15.7976C250.184 16.0661 250.326 16.3892 250.33 16.767C250.326 17.0256 250.258 17.2609 250.126 17.473C249.996 17.6818 249.827 17.8492 249.619 17.9751C249.41 18.0978 249.183 18.1591 248.938 18.1591Z" fill="#727272"/>
<path d="M262.131 21.7229C265.181 21.7229 267.653 17.5937 267.653 12.5C267.653 7.40634 265.181 3.2771 262.131 3.2771C259.08 3.2771 256.608 7.40634 256.608 12.5C256.608 17.5937 259.08 21.7229 262.131 21.7229Z" fill="#F5F8FA"/>
<path d="M262.131 22.2437C258.742 22.2437 256.087 17.9639 256.087 12.5C256.087 7.03609 258.742 2.75623 262.131 2.75623C265.52 2.75623 268.174 7.03609 268.174 12.5C268.174 17.9639 265.52 22.2437 262.131 22.2437ZM262.131 3.79789C259.372 3.79789 257.129 7.70136 257.129 12.5C257.129 17.2986 259.372 21.2021 262.131 21.2021C264.889 21.2021 267.133 17.2986 267.133 12.5C267.133 7.70136 264.889 3.79789 262.131 3.79789Z" fill="#E1E8ED"/>
<path d="M260.579 15.9444C262.482 15.9444 264.024 14.4023 264.024 12.5C264.024 10.5977 262.482 9.05554 260.579 9.05554C258.677 9.05554 257.135 10.5977 257.135 12.5C257.135 14.4023 258.677 15.9444 260.579 15.9444Z" fill="#8899A6"/>
<path d="M260.579 14.9757C261.946 14.9757 263.055 13.8673 263.055 12.5C263.055 11.1327 261.946 10.0243 260.579 10.0243C259.212 10.0243 258.104 11.1327 258.104 12.5C258.104 13.8673 259.212 14.9757 260.579 14.9757Z" fill="#292F33"/>
<path d="M261.494 11.7146C262.041 11.7146 262.484 11.2712 262.484 10.7243C262.484 10.1774 262.041 9.73401 261.494 9.73401C260.947 9.73401 260.503 10.1774 260.503 10.7243C260.503 11.2712 260.947 11.7146 261.494 11.7146Z" fill="#F5F8FA"/>
<path d="M274.913 21.7229C277.963 21.7229 280.435 17.5937 280.435 12.5C280.435 7.40634 277.963 3.2771 274.913 3.2771C271.862 3.2771 269.39 7.40634 269.39 12.5C269.39 17.5937 271.862 21.7229 274.913 21.7229Z" fill="#F5F8FA"/>
<path d="M274.912 22.2437C271.524 22.2437 268.869 17.9639 268.869 12.5C268.869 7.03609 271.524 2.75623 274.912 2.75623C278.301 2.75623 280.957 7.03609 280.957 12.5C280.957 17.9639 278.301 22.2437 274.912 22.2437ZM274.912 3.79789C272.154 3.79789 269.91 7.70206 269.91 12.5C269.91 17.2986 272.154 21.2021 274.912 21.2021C277.671 21.2021 279.915 17.2986 279.915 12.5C279.915 7.70136 277.671 3.79789 274.912 3.79789Z" fill="#E1E8ED"/>
<path d="M273.361 15.9444C275.264 15.9444 276.806 14.4023 276.806 12.5C276.806 10.5977 275.264 9.05554 273.361 9.05554C271.459 9.05554 269.917 10.5977 269.917 12.5C269.917 14.4023 271.459 15.9444 273.361 15.9444Z" fill="#8899A6"/>
<path d="M273.361 14.9757C274.728 14.9757 275.837 13.8673 275.837 12.5C275.837 11.1327 274.728 10.0243 273.361 10.0243C271.994 10.0243 270.885 11.1327 270.885 12.5C270.885 13.8673 271.994 14.9757 273.361 14.9757Z" fill="#292F33"/>
<path d="M274.276 11.7146C274.823 11.7146 275.266 11.2712 275.266 10.7243C275.266 10.1774 274.823 9.73401 274.276 9.73401C273.729 9.73401 273.285 10.1774 273.285 10.7243C273.285 11.2712 273.729 11.7146 274.276 11.7146Z" fill="#F5F8FA"/>
</svg>
